<svg viewBox="0 0 868 600"
    xmlns="http://www.w3.org/2000/svg" fill-rule="evenodd" clip-rule="evenodd" stroke-linejoin="round" stroke-miterlimit="2">
    <g transform="matrix(1.60444 0 0 .88626 1227.39 116.1)">
        <path fill="none" d="M-765-131h541v677h-541z"/>
        <clipPath id="a">
            <path d="M-765-131h541v677h-541z"/>
        </clipPath>
        <g clip-path="url(#a)">
            <path d="M-671.029-19.16l79.78 36.83-31.912-127.819-79.779-36.828 31.911 127.817zM-559.337 145.487l79.779 36.83-31.912-127.819-79.779-36.828 31.912 127.817zM-399.779 219.957l79.78 36.83-31.912-127.818-79.779-36.83 31.911 127.818zM-463.601-36.487l79.779 36.83-31.912-127.819-79.779-36.828 31.911 127.817z" fill="#fff" fill-rule="nonzero"/>
            <path d="M-447.646 310.134l79.779 36.83-31.912-127.819-79.779-36.829 31.912 127.818zM-495.514 401.121l79.779 36.83-31.912-127.819-79.779-36.828 31.912 127.817zM-607.206 236.475l79.78 36.829-31.912-127.818-79.779-36.83 31.911 127.819zM-655.074 327.462l79.779 36.829-31.912-127.818-79.779-36.829 31.911 127.818zM-511.47 54.5l79.78 36.83-31.912-127.819-79.779-36.828L-511.47 54.5zM-415.734-127.474l79.78 36.83-31.912-127.819-79.779-36.828 31.911 127.817zM-304.043 37.173l79.78 36.83-31.912-127.819-79.779-36.828 31.911 127.817zM-351.91 128.97l79.779 36.83-31.912-127.819-79.779-36.828 31.911 127.817zM-623.16-110.147l79.779 36.83-31.912-127.819-79.779-36.828 31.911 127.817zM-718.896 71.828l79.779 36.83-31.912-127.819-79.779-36.828 31.911 127.817z" fill="#fff" fill-rule="nonzero"/>
            <path d="M-543.384 492.108l79.78 36.83-31.912-127.819-79.779-36.828 31.911 127.817zM-702.942 418.448l79.779 36.83-31.912-127.819-79.779-36.828 31.911 127.817zM-766.764 162.815l79.779 36.83-31.912-127.819-79.779-36.829 31.911 127.818z" fill="#fff" fill-rule="nonzero"/>
            <path d="M-718.896 71.827l79.779 36.83-31.912-127.819-79.779-36.828 31.911 127.817zM-830.587-92.819l79.779 36.83-31.912-127.819-79.779-36.828 31.911 127.817zM-750.81 509.435l79.779 36.83-31.912-127.819-79.779-36.828 31.911 127.817zM-814.634 253.802l79.78 36.83-31.912-127.819-79.779-36.829 31.911 127.818z" fill="#fff" fill-rule="nonzero"/>
        </g>
    </g>
</svg>
