<svg width="235" height="200" viewBox="0 0 235 200" fill="none"
  xmlns="http://www.w3.org/2000/svg">
  <path d="M79.386 50.013H75.73v2.476h4.29v1.53h-6.195v-9.243h6.183v1.543H75.73v2.202h3.656v1.492zm6.544 1.58c0-.359-.127-.634-.38-.825-.255-.194-.712-.397-1.372-.609-.66-.216-1.183-.427-1.568-.635-1.05-.567-1.574-1.33-1.574-2.291 0-.5.14-.944.42-1.333.283-.394.687-.7 1.212-.92.528-.22 1.12-.33 1.777-.33.66 0 1.248.12 1.765.361.516.237.916.574 1.2 1.01.287.435.43.93.43 1.485h-1.904c0-.423-.133-.751-.4-.984-.266-.237-.64-.356-1.123-.356-.465 0-.827.1-1.085.299a.923.923 0 00-.388.774c0 .3.15.552.451.756.305.203.751.393 1.34.57 1.083.327 1.872.73 2.367 1.213.495.483.743 1.084.743 1.803 0 .8-.303 1.428-.908 1.885-.605.453-1.42.68-2.444.68a4.751 4.751 0 01-1.942-.388c-.584-.262-1.03-.62-1.34-1.073-.304-.452-.456-.977-.456-1.574h1.91c0 1.02.61 1.53 1.828 1.53.453 0 .806-.09 1.06-.273a.907.907 0 00.381-.774zm10.163-5.274h-2.831v7.7h-1.905v-7.7h-2.793v-1.543h7.529v1.543zm1.092 7.7v-9.243h2.843c.813 0 1.539.184 2.178.553a3.8 3.8 0 011.504 1.561c.36.673.54 1.439.54 2.298v.425c0 .86-.178 1.623-.534 2.292a3.774 3.774 0 01-1.491 1.555c-.644.368-1.369.554-2.178.559h-2.862zm1.904-7.7v6.17h.92c.745 0 1.314-.244 1.708-.73.393-.487.594-1.183.603-2.089v-.488c0-.94-.195-1.65-.584-2.133-.389-.487-.959-.73-1.708-.73h-.94zm38.587 7.7h-6.335v-1.257l2.99-3.187c.411-.448.713-.84.908-1.174.199-.335.298-.652.298-.952 0-.41-.104-.732-.311-.965-.207-.237-.504-.356-.889-.356-.414 0-.742.144-.983.432-.237.283-.356.658-.356 1.123h-1.841c0-.562.134-1.077.4-1.542.271-.465.652-.83 1.143-1.092.491-.266 1.047-.4 1.669-.4.952 0 1.691.229 2.215.686.529.457.794 1.102.794 1.936 0 .457-.119.922-.356 1.396-.237.474-.643 1.027-1.218 1.657l-2.101 2.215h3.973v1.48zm7.351-3.822c0 1.278-.265 2.256-.794 2.933s-1.303 1.015-2.323 1.015c-1.007 0-1.777-.332-2.31-.996-.534-.665-.807-1.617-.819-2.857v-1.7c0-1.291.266-2.271.8-2.94.537-.668 1.309-1.003 2.316-1.003 1.008 0 1.778.332 2.311.997.533.66.806 1.61.819 2.85v1.701zm-1.835-1.866c0-.766-.105-1.322-.317-1.67-.207-.35-.533-.526-.978-.526-.431 0-.751.167-.958.501-.203.33-.311.849-.324 1.555v2.247c0 .754.102 1.314.305 1.682.207.364.537.546.99.546.449 0 .772-.175.971-.526.199-.352.303-.89.311-1.613v-2.196zm9.414 5.688h-6.335v-1.257l2.99-3.187c.41-.448.713-.84.907-1.174.199-.335.299-.652.299-.952 0-.41-.104-.732-.311-.965-.208-.237-.504-.356-.889-.356-.415 0-.743.144-.984.432-.237.283-.355.658-.355 1.123h-1.841c0-.562.133-1.077.4-1.542.271-.465.652-.83 1.142-1.092.491-.266 1.048-.4 1.67-.4.952 0 1.69.229 2.215.686.529.457.794 1.102.794 1.936 0 .457-.119.922-.356 1.396-.237.474-.643 1.027-1.219 1.657l-2.101 2.215h3.974v1.48zm7.351-3.822c0 1.278-.265 2.256-.794 2.933s-1.303 1.015-2.323 1.015c-1.007 0-1.778-.332-2.311-.996-.533-.665-.806-1.617-.819-2.857v-1.7c0-1.291.267-2.271.8-2.94.538-.668 1.31-1.003 2.317-1.003 1.007 0 1.777.332 2.311.997.533.66.806 1.61.819 2.85v1.701zm-1.835-1.866c0-.766-.106-1.322-.317-1.67-.208-.35-.534-.526-.978-.526-.431 0-.751.167-.958.501-.203.33-.311.849-.324 1.555v2.247c0 .754.101 1.314.305 1.682.207.364.537.546.99.546.448 0 .772-.175.971-.526.199-.352.303-.89.311-1.613v-2.196zM63.932 182.946l14.177-1.151 104.141-4.394c-1.677 3.973-.483 7.679.582 10.417-1.996-.543-3.183-.323-3.527-.144l-.889-2.924c-16.777-4.383-70.582-1.737-112.658 2.89l-1.826-4.694z" fill="#fff"/>
  <g clip-path="url(#clip0)">
    <path d="M120.924 44.105c-1.675 0-3.058-1.086-5.163-1.086-.78 0-1.479.137-2.127.375.09-.235.128-.486.113-.736A1.75 1.75 0 10111 44.205v12.063c0 .415.336.75.75.75h.5a.75.75 0 00.75-.75v-2.95c.885-.377 1.987-.69 3.576-.69 1.675 0 3.058 1.086 5.163 1.086 1.505 0 2.708-.509 3.828-1.277a.997.997 0 00.433-.823v-7.597a1 1 0 00-1.421-.907c-1.073.498-2.39.995-3.655.995z" fill="#fff"/>
  </g>
  <path d="M33.44 87.778l-.64-.32-.64-.32c-.213-.16-.4-.346-.56-.56-.16-.746-.213-1.466-.16-2.16.107-.746.293-1.493.56-2.24.32-1.12.747-2.186 1.28-3.2.587-1.013 1.227-2 1.92-2.96.96-1.386 2.027-2.586 3.2-3.6a29.621 29.621 0 013.92-2.88c1.707-1.013 3.627-1.68 5.76-2h.32c.16-.053.293-.08.4-.08.853-.266 1.627-.266 2.32 0 .693.267 1.36.614 2 1.04.213.107.4.24.56.4.16.16.347.32.56.48.96.907 1.893 1.84 2.8 2.8 1.867 1.974 2.64 4.24 2.32 6.8-.107.8-.267 1.574-.48 2.32-.213.747-.48 1.494-.8 2.24a92.098 92.098 0 01-1.68 3.2c-.533 1.014-1.12 2-1.76 2.96a1.252 1.252 0 00-.24.32c0 .107-.053.214-.16.32l.24.24c1.067.054 2 .534 2.8 1.44l1.28 1.28c.427.374.853.774 1.28 1.2.533.64 1.093 1.36 1.68 2.16.533.854.853 1.867.96 3.04.053 1.6.053 3.174 0 4.72 0 .427-.053.827-.16 1.2-.053.32-.107.694-.16 1.12a22.083 22.083 0 01-3.6 8.64c-.587.8-1.2 1.574-1.84 2.32-.64.694-1.333 1.36-2.08 2a7.037 7.037 0 01-2.16 1.36c-.747.32-1.52.587-2.32.8-.533.16-1.067.294-1.6.4-.48.16-.987.347-1.52.56-.587.214-1.2.374-1.84.48-.64.16-1.28.214-1.92.16a12.964 12.964 0 01-3.52-.8c-1.12-.373-2.16-1.013-3.12-1.92l-3.6-3.12a6.828 6.828 0 01-1.52-1.52 16.03 16.03 0 01-1.12-1.76c-.587-1.12-.533-2.24.16-3.36.267-.32.507-.613.72-.88.267-.32.587-.56.96-.72.32.107.587.267.8.48.267.214.507.454.72.72.267.267.507.534.72.8.213.267.507.454.88.56.213.107.373.267.48.48.16.16.347.32.56.48-.213.374-.427.72-.64 1.04-.16.267-.347.56-.56.88-.107.427-.16.88-.16 1.36.053.427.213.854.48 1.28.427.267.88.427 1.36.48.48.054.96.134 1.44.24a.62.62 0 01.24-.08l.24-.24v-.72c.053-.213.08-.453.08-.72a247.54 247.54 0 00-.16-1.84c0-.64-.027-1.253-.08-1.84 0-.48-.027-.933-.08-1.36 0-.48.027-.96.08-1.44.107-.906.16-1.786.16-2.64 0-.906.027-1.813.08-2.72.053-1.546.08-3.066.08-4.56.053-1.546.133-3.093.24-4.64.107-1.226.213-2.426.32-3.6l.32-3.68c.107-.96.24-1.92.4-2.88l.48-2.88c.053-.373.187-.746.4-1.12.053-.106.187-.266.4-.48a9.061 9.061 0 011.44.72l1.28.8a4.94 4.94 0 01.16 1.76 19.887 19.887 0 01-.24 1.76c-.107.907-.16 1.814-.16 2.72.053.854.053 1.734 0 2.64.107-.053.187-.053.24 0 .053 0 .107-.026.16-.08a41.076 41.076 0 003.52-4 28.322 28.322 0 002.96-4.48c.213-.426.427-.8.64-1.12.213-.373.427-.773.64-1.2.587-1.066 1.093-2.346 1.52-3.84.107-.426.187-.853.24-1.28.053-.48.133-.96.24-1.44a1.97 1.97 0 00-.08-.96l-.32-.96c-.213-.106-.4-.16-.56-.16-1.013-.106-1.947-.08-2.8.08-.32.107-.667.16-1.04.16a3.8 3.8 0 00-1.04.16c-1.227.267-2.4.694-3.52 1.28a19.558 19.558 0 00-3.2 1.92c-2.773 1.92-4.987 4.507-6.64 7.76a9.509 9.509 0 00-.88 2c-.16.694-.293 1.414-.4 2.16 0 .107-.027.187-.08.24v.24l-.16.16zm10.64 10.64c0 1.014-.027 2-.08 2.96 0 .96.053 1.92.16 2.88.053.587.08 1.147.08 1.68.053.534.08 1.094.08 1.68 0 1.387.027 2.747.08 4.08.107 1.28.213 2.587.32 3.92 0 .054.053.187.16.4.053 0 .08.027.08.08h.16a10.18 10.18 0 002.32-1.04 8.932 8.932 0 002-1.76c.213-.266.4-.533.56-.8.213-.266.453-.533.72-.8a31.668 31.668 0 003.36-4.72 20.186 20.186 0 002.24-5.44.707.707 0 00.08-.32l.16-.32c.373-1.013.587-2.026.64-3.04.107-1.013.16-2.053.16-3.12a.71.71 0 00-.08-.32 3.106 3.106 0 00-.16-.4c-2.4-.16-4.667.16-6.8.96-.32.32-.64.667-.96 1.04-.32.32-.667.64-1.04.96l-1.04 1.04c-.32.32-.693.614-1.12.88-.213-.16-.4-.32-.56-.48a3.18 3.18 0 00-.48-.4c-.053-.053-.187-.08-.4-.08a1.252 1.252 0 00-.32.24c-.053.054-.16.134-.32.24zm36.639 16.4c-.16.054-.267.134-.32.24a1.237 1.237 0 01-.24.32l-1.44 2.88c-.267.427-.56.854-.88 1.28-.32.374-.72.72-1.2 1.04a1.52 1.52 0 00-.48-.08c-.16 0-.32-.026-.48-.08l-3.52-1.28a253.9 253.9 0 00-3.44-1.28c-1.227-.426-2-1.36-2.32-2.8a10.783 10.783 0 01-.24-1.28l-.16-1.44a26.248 26.248 0 01.24-5.44c.266-1.76.666-3.52 1.2-5.28.266-.853.586-1.653.96-2.4.426-.8.853-1.573 1.28-2.32l.64-1.12c.213-.373.453-.72.72-1.04 1.173-1.653 2.613-2.746 4.32-3.28.213-.106.4-.16.56-.16.213-.053.426-.133.64-.24a11.36 11.36 0 013.28 1.12c1.066.48 2.133.934 3.2 1.36.32-.48.48-1.013.48-1.6 0-.586.266-1.066.8-1.44.586.107 1.12.294 1.6.56.533.267 1.093.48 1.68.64a.523.523 0 01.24.24c.106.054.213.134.32.24.053.267.08.694.08 1.28v2.56c0 .854-.054 1.734-.16 2.64a31.343 31.343 0 00-.16 3.12c0 1.014-.027 2.054-.08 3.12v5.6c0 1.814.026 3.654.08 5.52 0 .214-.027.427-.08.64 0 .214.106.427.32.64.266 0 .453-.053.56-.16.106-.16.213-.293.32-.4l.8-.8c.266-.266.506-.56.72-.88.266-.266.48-.56.64-.88.16-.32.346-.64.56-.96l2.16-3.84c.266-.426.56-1.013.88-1.76.373-.8.586-1.466.64-2 0-.266.186-.506.56-.72.48.107.933.294 1.36.56.426.267.906.427 1.44.48.106.16.16.294.16.4l.16.32c-.214.267-.4.507-.56.72-.16.214-.294.454-.4.72-.16.267-.294.534-.4.8a5.625 5.625 0 01-.24.72 107.878 107.878 0 00-1.92 3.68 58.733 58.733 0 01-1.84 3.68l-.48 1.12c-.16.374-.347.747-.56 1.12-.107.267-.24.534-.4.8-.16.214-.347.454-.56.72-.64.907-1.494 1.174-2.56.8l-2.08-.8a31.635 31.635 0 01-2.08-.72c-.267-.106-.56-.213-.88-.32l-.8-.32c-.747-.213-1.307-.72-1.68-1.52a3.66 3.66 0 01-.56-1.12l-.32-1.28a.714.714 0 00-.08-.32v-.32zm-.32-20.88c-.534.267-1.04.56-1.52.88-.427.267-.8.667-1.12 1.2-.16.32-.347.64-.56.96-.16.267-.32.587-.48.96a24.301 24.301 0 00-2.32 9.28c-.054.907-.08 1.84-.08 2.8.053.907.08 1.814.08 2.72 0 .267.16.374.48.32.266-.426.533-.88.8-1.36.32-.48.613-.986.88-1.52.426-.906.853-1.786 1.28-2.64.48-.853.933-1.733 1.36-2.64.32-.8.64-1.573.96-2.32.32-.8.693-1.573 1.12-2.32l.32-.8c.106-.32.24-.64.4-.96-.32-.213-.56-.346-.72-.4.106-.8.133-1.546.08-2.24-.054-.693-.374-1.333-.96-1.92zm22.584 20.16h.08c0-.053.027-.08.08-.08h.08a79.029 79.029 0 002.32-5.44 582.566 582.566 0 002.24-5.52 3.171 3.171 0 00-.4-.72 3.13 3.13 0 01-.4-.72 20.021 20.021 0 01-1.28-3.2 11.917 11.917 0 01-.48-3.44v-2.72c.16-2.24.8-4.266 1.92-6.08a.93.93 0 01.16-.24.93.93 0 00.16-.24c.533-.266 1.093-.24 1.68.08.533.374 1.067.72 1.6 1.04.533.267 1.04.614 1.52 1.04.427.32.773.694 1.04 1.12l.8 1.12c.107.16.213.4.32.72.107.96.16 1.92.16 2.88a7.926 7.926 0 01-.32 2.72 65.109 65.109 0 00-.88 3.44 27.025 27.025 0 01-1.04 3.36c-.107.534-.107.934 0 1.2.16.374.453.507.88.4.213-.053.4-.106.56-.16l.48-.16c.64-.373 1.12-.853 1.44-1.44.373-.64.747-1.253 1.12-1.84.267-.053.48-.026.64.08.213.107.4.214.56.32.213.16.4.32.56.48l.48.48c.32.32.613.507.88.56.427.054.773.347 1.04.88-.107.107-.16.214-.16.32 0 .054-.053.107-.16.16-.32.214-.587.48-.8.8-.16.267-.373.534-.64.8-.267.427-.56.8-.88 1.12-.48.48-1.067.72-1.76.72a5.26 5.26 0 01-1.84-.16 11.159 11.159 0 01-1.6-.8c-.48-.32-.933-.586-1.36-.8l-.08-.08c-.213.107-.347.24-.4.4 0 .107-.027.24-.08.4-.427 1.12-.853 2.267-1.28 3.44-.427 1.12-.853 2.267-1.28 3.44-.32.747-.64 1.52-.96 2.32-.267.8-.56 1.574-.88 2.32a7.92 7.92 0 01-.88 1.6 2.59 2.59 0 01-.32.4.992.992 0 01-.24.4 5.632 5.632 0 01-.64-.24c-.587-.32-1.147-.64-1.68-.96a17.721 17.721 0 00-1.68-1.04 12.422 12.422 0 01-1.6-1.2c-.48-.48-.933-.986-1.36-1.52-.693-.96-1.147-1.92-1.36-2.88a32.95 32.95 0 00-.4-2.24 16.17 16.17 0 01-.32-2.24c-.106-.693-.213-1.36-.32-2a29.027 29.027 0 00-.24-2 39.8 39.8 0 01-.08-2.48v-2.56c0-1.173.08-2.32.24-3.44.213-1.12.454-2.24.72-3.36a.71.71 0 01.08-.32 3.12 3.12 0 01.16-.4l.24-.24h.24c.16 0 .267.027.32.08l.96.48c.32.267.64.507.96.72.32.214.613.427.88.64.107.32.16.614.16.88v4.72c.107 1.707.24 3.414.4 5.12.213 1.654.533 3.334.96 5.04.16.694.293 1.387.4 2.08.107.64.24 1.307.4 2 0 .107.053.32.16.64zm6.96-17.92c.267-.266.427-.506.48-.72.053-.266.133-.533.24-.8.107-.266.187-.506.24-.72.053-.213.107-.453.16-.72.053-.266.08-.533.08-.8v-.88-.8c0-.266-.08-.533-.24-.8a25.125 25.125 0 00-.88 3.12 12.152 12.152 0 00-.08 3.12zm20.151 18.64c-.16.054-.267.134-.32.24a1.268 1.268 0 01-.24.32l-1.44 2.88c-.267.427-.56.854-.88 1.28-.32.374-.72.72-1.2 1.04a1.52 1.52 0 00-.48-.08c-.16 0-.32-.026-.48-.08l-3.52-1.28c-1.12-.426-2.267-.853-3.44-1.28-1.227-.426-2-1.36-2.32-2.8a10.624 10.624 0 01-.24-1.28l-.16-1.44a26.193 26.193 0 01.24-5.44c.266-1.76.666-3.52 1.2-5.28.266-.853.586-1.653.96-2.4.426-.8.853-1.573 1.28-2.32l.64-1.12a7.15 7.15 0 01.72-1.04c1.173-1.653 2.613-2.746 4.32-3.28.213-.106.4-.16.56-.16.213-.053.426-.133.64-.24a11.37 11.37 0 013.28 1.12 81.51 81.51 0 003.2 1.36c.32-.48.48-1.013.48-1.6 0-.586.266-1.066.8-1.44.586.107 1.12.294 1.6.56a9.08 9.08 0 001.68.64.53.53 0 01.24.24c.106.054.213.134.32.24.053.267.08.694.08 1.28v2.56c0 .854-.054 1.734-.16 2.64a31.253 31.253 0 00-.16 3.12c0 1.014-.027 2.054-.08 3.12v5.6c0 1.814.026 3.654.08 5.52 0 .214-.027.427-.08.64 0 .214.106.427.32.64.266 0 .453-.053.56-.16.106-.16.213-.293.32-.4l.8-.8c.266-.266.506-.56.72-.88.266-.266.48-.56.64-.88.16-.32.346-.64.56-.96l2.16-3.84c.266-.426.56-1.013.88-1.76.373-.8.586-1.466.64-2 0-.266.186-.506.56-.72.48.107.933.294 1.36.56.426.267.906.427 1.44.48.106.16.16.294.16.4l.16.32c-.214.267-.4.507-.56.72-.16.214-.294.454-.4.72a5.58 5.58 0 00-.4.8 5.82 5.82 0 01-.24.72 106.808 106.808 0 00-1.92 3.68 59.064 59.064 0 01-1.84 3.68l-.48 1.12c-.16.374-.347.747-.56 1.12a5.58 5.58 0 01-.4.8c-.16.214-.347.454-.56.72-.64.907-1.494 1.174-2.56.8l-2.08-.8a31.454 31.454 0 01-2.08-.72c-.267-.106-.56-.213-.88-.32l-.8-.32c-.747-.213-1.307-.72-1.68-1.52a3.639 3.639 0 01-.56-1.12 478.5 478.5 0 01-.32-1.28.718.718 0 00-.08-.32v-.32zm-.32-20.88c-.534.267-1.04.56-1.52.88-.427.267-.8.667-1.12 1.2a9 9 0 01-.56.96c-.16.267-.32.587-.48.96a24.292 24.292 0 00-2.32 9.28c-.054.907-.08 1.84-.08 2.8.053.907.08 1.814.08 2.72 0 .267.16.374.48.32.266-.426.533-.88.8-1.36.32-.48.613-.986.88-1.52.426-.906.853-1.786 1.28-2.64a40.93 40.93 0 001.36-2.64c.32-.8.64-1.573.96-2.32.32-.8.693-1.573 1.12-2.32l.32-.8c.106-.32.24-.64.4-.96-.32-.213-.56-.346-.72-.4.106-.8.133-1.546.08-2.24-.054-.693-.374-1.333-.96-1.92zm17.784-1.92c.427-.106.773-.106 1.04 0 .32.107.613.24.88.4a7.946 7.946 0 001.6.88c.267.107.48.24.64.4.213.107.373.214.48.32.213.374.32.72.32 1.04.053.32.053.614 0 .88-.16 1.28-.133 2.454.08 3.52 0 .16.08.347.24.56a33.002 33.002 0 012.24-3.84 149.386 149.386 0 012.64-3.52c.32-.16.64-.16.96 0l.96.48c.427.267.853.507 1.28.72.427.214.853.454 1.28.72.64.32 1.147.747 1.52 1.28.373.534.4 1.067.08 1.6a6.794 6.794 0 01-1.76-.88 4.536 4.536 0 00-1.84-.88 10.978 10.978 0 00-2.32 2.4c-1.28 1.707-2.187 3.52-2.72 5.44l-1.28 3.84c-.373 1.28-.773 2.56-1.2 3.84-.213.694-.32 1.494-.32 2.4.107.8.08 1.6-.08 2.4-.16.8-.32 1.574-.48 2.32-.107.427-.213.72-.32.88-.107.16-.32.454-.64.88-.427 0-.827-.106-1.2-.32a3.714 3.714 0 00-1.04-.48c-.8-.266-1.547-.613-2.24-1.04-.533-.746-.88-1.626-1.04-2.64a44.985 44.985 0 01-.4-4.48 65.403 65.403 0 010-4.56c.053-1.013.16-2 .32-2.96.16-1.013.32-2 .48-2.96.16-1.066.32-2.08.48-3.04.213-1.013.427-2.053.64-3.12.107-.32.187-.64.24-.96.053-.32.133-.64.24-.96 0-.106.027-.186.08-.24l.16-.32zm27.759-15.2a.895.895 0 00-.08.4.714.714 0 01-.08.32c-.373.747-.693 1.52-.96 2.32l-.8 2.24c-.213.587-.4 1.147-.56 1.68-.16.534-.373 1.094-.64 1.68-.16.374-.347.747-.56 1.12-.16.374-.4.694-.72.96-.48 0-.933-.106-1.36-.32a4.7 4.7 0 00-1.2-.48 5.698 5.698 0 00-.72-.24c-.213-.106-.4-.293-.56-.56.16-.8.293-1.6.4-2.4.16-.8.347-1.6.56-2.4.16-.906.293-1.786.4-2.64.16-.853.293-1.733.4-2.64.053-.426.107-.693.16-.8.053-.16.24-.453.56-.88.64.054 1.253.267 1.84.64.267.16.507.32.72.48.213.16.453.294.72.4l.32.16a.71.71 0 00.32.08c.373.054.693.16.96.32s.56.347.88.56zm-9.2 15.2c.373-.053.64-.026.8.08.213.107.453.214.72.32l.64.32c.213.054.453.134.72.24.16 0 .32.054.48.16l.48.32v.72c.053.16.053.347 0 .56l-.16 1.28c0 .427-.053.854-.16 1.28a31.518 31.518 0 00-.24 2.24v2.24a310.253 310.253 0 00-.24 6.96 308.2 308.2 0 01-.08 6.96c0 .267-.027.507-.08.72 0 .214.027.427.08.64v.32c.053.107.08.214.08.32.48-.16.88-.373 1.2-.64.32-.32.613-.666.88-1.04.213-.213.373-.426.48-.64.16-.213.32-.453.48-.72.267-.426.533-.826.8-1.2l.8-1.28a30.213 30.213 0 002.16-3.2 21.12 21.12 0 001.68-3.52c.107-.213.213-.4.32-.56.427.214.853.4 1.28.56.48.16.933.347 1.36.56.107.107.133.214.08.32a.955.955 0 00-.16.24c-.267.587-.587 1.2-.96 1.84a56.53 56.53 0 00-.88 1.84l-.8 1.44c-.267.48-.533.987-.8 1.52a41.543 41.543 0 00-1.2 2.08c-.373.64-.747 1.307-1.12 2-.32.534-.667 1.04-1.04 1.52-.373.427-.907.774-1.6 1.04-.107.054-.427.134-.96.24-.693.16-1.36.134-2-.08-.747-.266-1.52-.533-2.32-.8l-2.24-.8c-1.173-.426-2.053-1.04-2.64-1.84-.587-.853-.96-1.84-1.12-2.96-.16-1.653-.08-3.333.24-5.04a55.7 55.7 0 01.8-4.48c.32-1.493.693-2.986 1.12-4.48.32-1.226.72-2.426 1.2-3.6a51.175 51.175 0 011.6-3.52.93.93 0 01.16-.24.93.93 0 00.16-.24zm25.852 22.8c-.16.054-.267.134-.32.24a1.268 1.268 0 01-.24.32l-1.44 2.88c-.267.427-.56.854-.88 1.28-.32.374-.72.72-1.2 1.04a1.52 1.52 0 00-.48-.08c-.16 0-.32-.026-.48-.08l-3.52-1.28c-1.12-.426-2.267-.853-3.44-1.28-1.227-.426-2-1.36-2.32-2.8a10.624 10.624 0 01-.24-1.28l-.16-1.44a26.193 26.193 0 01.24-5.44c.266-1.76.666-3.52 1.2-5.28.266-.853.586-1.653.96-2.4.426-.8.853-1.573 1.28-2.32l.64-1.12a7.15 7.15 0 01.72-1.04c1.173-1.653 2.613-2.746 4.32-3.28.213-.106.4-.16.56-.16.213-.053.426-.133.64-.24a11.37 11.37 0 013.28 1.12 81.51 81.51 0 003.2 1.36c.32-.48.48-1.013.48-1.6 0-.586.266-1.066.8-1.44.586.107 1.12.294 1.6.56a9.08 9.08 0 001.68.64.53.53 0 01.24.24c.106.054.213.134.32.24.053.267.08.694.08 1.28v2.56c0 .854-.054 1.734-.16 2.64a31.253 31.253 0 00-.16 3.12c0 1.014-.027 2.054-.08 3.12v5.6c0 1.814.026 3.654.08 5.52 0 .214-.027.427-.08.64 0 .214.106.427.32.64.266 0 .453-.053.56-.16.106-.16.213-.293.32-.4l.8-.8c.266-.266.506-.56.72-.88.266-.266.48-.56.64-.88.16-.32.346-.64.56-.96l2.16-3.84c.266-.426.56-1.013.88-1.76.373-.8.586-1.466.64-2 0-.266.186-.506.56-.72.48.107.933.294 1.36.56.426.267.906.427 1.44.48.106.16.16.294.16.4l.16.32c-.214.267-.4.507-.56.72-.16.214-.294.454-.4.72a5.58 5.58 0 00-.4.8 5.82 5.82 0 01-.24.72 106.808 106.808 0 00-1.92 3.68 59.064 59.064 0 01-1.84 3.68l-.48 1.12c-.16.374-.347.747-.56 1.12a5.58 5.58 0 01-.4.8c-.16.214-.347.454-.56.72-.64.907-1.494 1.174-2.56.8l-2.08-.8a31.454 31.454 0 01-2.08-.72c-.267-.106-.56-.213-.88-.32l-.8-.32c-.747-.213-1.307-.72-1.68-1.52a3.639 3.639 0 01-.56-1.12 478.5 478.5 0 01-.32-1.28.718.718 0 00-.08-.32v-.32zm-.32-20.88c-.534.267-1.04.56-1.52.88-.427.267-.8.667-1.12 1.2a9 9 0 01-.56.96c-.16.267-.32.587-.48.96a24.292 24.292 0 00-2.32 9.28c-.054.907-.08 1.84-.08 2.8.053.907.08 1.814.08 2.72 0 .267.16.374.48.32.266-.426.533-.88.8-1.36.32-.48.613-.986.88-1.52.426-.906.853-1.786 1.28-2.64a40.93 40.93 0 001.36-2.64c.32-.8.64-1.573.96-2.32.32-.8.693-1.573 1.12-2.32l.32-.8c.106-.32.24-.64.4-.96-.32-.213-.56-.346-.72-.4.106-.8.133-1.546.08-2.24-.054-.693-.374-1.333-.96-1.92zM64.12 127.778a5.684 5.684 0 011.52.48c.427.214.853.454 1.28.72.533.32 1.067.667 1.6 1.04.533.32 1.093.64 1.68.96.64.374 1.093.667 1.36.88.267.214.453.454.56.72.107.267.16.614.16 1.04 0 .427.08.987.24 1.68.213.907.32 1.787.32 2.64.053.8.08 1.654.08 2.56 0 .747-.027 1.494-.08 2.24 0 .747-.027 1.494-.08 2.24-.053.587-.107 1.147-.16 1.68 0 .534-.053 1.094-.16 1.68l-.32 1.92c-.053.64-.133 1.307-.24 2a47.92 47.92 0 00-.4 2.72c-.107.907-.24 1.814-.4 2.72-.16.747-.293 1.52-.4 2.32l-.32 2.24c-.107.534-.24 1.254-.4 2.16a32.377 32.377 0 01-.48 2.88l-.48 2.88c-.16.907-.267 1.627-.32 2.16l-.48 3.12c-.107.694-.187 1.52-.24 2.48 0 1.014-.267 1.734-.8 2.16-.107 0-.133-.106-.08-.32.107-.213.107-.373 0-.48-.16-.106-.293-.133-.4-.08l-.32.16a.52.52 0 01-.24.24c-.107.107-.24.107-.4 0-.96-.373-1.893-.8-2.8-1.28a12.786 12.786 0 01-.8-1.76 24.583 24.583 0 00-.72-1.76v-1.2c0-.426.027-.853.08-1.28l.16-1.76c.107-.64.213-1.253.32-1.84.107-.533.24-1.226.4-2.08l.48-2.72c.213-.96.373-1.866.48-2.72.16-.906.293-1.6.4-2.08.16-.8.293-1.573.4-2.32.16-.8.293-1.6.4-2.4.213-1.12.4-2.213.56-3.28.213-1.12.4-2.24.56-3.36.16-.8.293-1.6.4-2.4.16-.8.293-1.6.4-2.4.16-1.066.293-2.133.4-3.2.107-1.066.16-2.133.16-3.2a7.24 7.24 0 000-1.52c0-.533-.027-1.066-.08-1.6a.714.714 0 00-.08-.32 1.315 1.315 0 01-.08-.4c-.32-.16-.613-.16-.88 0a15.553 15.553 0 00-3.12 2.16c-.853.8-1.68 1.654-2.48 2.56-.747.854-1.493 1.734-2.24 2.64-.427.427-.827.88-1.2 1.36-.373.427-.72.907-1.04 1.44a7.18 7.18 0 00-1.2 4c.053.374.08.747.08 1.12v.88c.213.374.453.64.72.8.267.107.56.214.88.32-.16.107-.267.187-.32.24a.905.905 0 01-.24.16c-.427 0-.747-.026-.96-.08-.267-.106-.56-.213-.88-.32l-.8-.32a2.234 2.234 0 01-1.2-1.12c-.533-1.28-.827-2.533-.88-3.76-.053-1.28.213-2.56.8-3.84.267-.48.507-.96.72-1.44.267-.48.56-.933.88-1.36a335.453 335.453 0 002.16-3.12c.747-1.013 1.52-2.053 2.32-3.12a13.734 13.734 0 011.92-2 8 8 0 012.4-1.52c.32-.16.64-.266.96-.32a9.8 9.8 0 00.96-.32zm24.743 46.88c-.746 0-1.413-.133-2-.4a7.9 7.9 0 01-1.6-.88c-.48-.32-.96-.586-1.44-.8-.48-.266-.986-.533-1.52-.8a.718.718 0 00-.4.48c-.053.16-.107.347-.16.56a33.734 33.734 0 01-.24 5.28 80.481 80.481 0 01-.64 4.32c-.16 1.227-.266 2.107-.32 2.64-.053.587.08.694.4.32-.16.534-.213.96-.16 1.28.107.32.107.774 0 1.36 0 .16-.026.32-.08.48a4.36 4.36 0 01-.24.56c-.16-.053-.453-.106-.88-.16-.427 0-.88-.026-1.36-.08-.48-.053-.933-.106-1.36-.16-.427 0-.72-.026-.88-.08-.053 0-.16-.08-.32-.24l-.24-.24a162.1 162.1 0 01-.32-2l-.32-1.92a4.493 4.493 0 01-.08-.88v-6.96c0-.426.027-.826.08-1.2a8.48 8.48 0 00.08-1.2c.053-.266.08-.506.08-.72v-.8c0-1.066.08-2.106.24-3.12.107-1.013.213-2.053.32-3.12.267-2.026.587-4 .96-5.92.374-1.973.72-3.946 1.04-5.92.213-1.226.454-2.4.72-3.52.267-1.173.534-2.373.8-3.6.053-.16.107-.293.16-.4.053-.16.133-.32.24-.48.107.054.187.08.24.08a.62.62 0 01.24.08l1.28.64 1.28.64.16.32c.107.374.133.747.08 1.12 0 .32-.026.694-.08 1.12a10.86 10.86 0 00-.24 1.28c-.053.427-.133.854-.24 1.28a.706.706 0 01-.08.32v.24a33.556 33.556 0 00-.24 2.16c0 .64-.053 1.307-.16 2a33.556 33.556 0 00-.24 2.16c-.053.64-.133 1.334-.24 2.08v.56c.267-.32.427-.64.48-.96l.32-1.12a33.352 33.352 0 011.92-5.12c.267-.586.533-1.146.8-1.68.32-.586.614-1.173.88-1.76.32-.586.667-1.12 1.04-1.6.373-.533.773-1.04 1.2-1.52.267-.266.534-.506.8-.72.32-.213.587-.4.8-.56.373-.16.667-.186.88-.08.213.054.427.134.64.24.747.374 1.52.8 2.32 1.28.533.32.96.8 1.28 1.44.64 1.6.827 3.307.56 5.12 0 .214-.026.427-.08.64-.053.16-.08.347-.08.56 0 1.067-.106 2.107-.32 3.12a55.454 55.454 0 00-.4 3.12c-.106.587-.213 1.2-.32 1.84a19.837 19.837 0 01-.24 1.76 198.29 198.29 0 01-.32 2.16 8.553 8.553 0 01-.56 2c-.32 1.067-.8 1.947-1.44 2.64-.64.694-1.467 1.174-2.48 1.44zm2-23.92c-.16 0-.266.027-.32.08l-1.28 1.28a5.139 5.139 0 00-1.04 1.52 93.366 93.366 0 00-1.68 3.2 31.395 31.395 0 00-1.28 3.36 58.1 58.1 0 00-1.28 4c-.32 1.334-.666 2.694-1.04 4.08v.48c.267.107.48.214.64.32.213.054.427.134.64.24.213.054.48.187.8.4 1.227-.586 2.053-1.413 2.48-2.48.267-.586.507-1.306.72-2.16.213-.746.4-1.493.56-2.24.16-.8.347-1.573.56-2.32.373-1.386.667-2.746.88-4.08.267-1.386.48-2.773.64-4.16.053-.266.08-.506.08-.72a1.383 1.383 0 00-.08-.8zm7.306 8.96h.48c.106-.053.24-.106.4-.16.373.214.72.427 1.04.64.32.214.693.427 1.12.64 0 .267.026.747.08 1.44.106.64.213 1.334.32 2.08.106.747.213 1.467.32 2.16.106.64.213 1.094.32 1.36.106.587.186 1.147.24 1.68.106.534.293 1.04.56 1.52.213.107.48.107.8 0 1.173-.533 1.893-1.466 2.16-2.8.106-.693.213-1.36.32-2a3.945 3.945 0 00-.08-2.08c-.054-.053-.08-.16-.08-.32a7.718 7.718 0 00-.24-2.48c-.16-.8-.32-1.626-.48-2.48-.214-.906-.32-1.84-.32-2.8 0-.96.026-1.92.08-2.88a18.47 18.47 0 011.04-3.04c.48-.96 1.093-1.84 1.84-2.64 1.173-1.173 2.506-1.84 4-2 .586.054 1.12.187 1.6.4.48.214.933.454 1.36.72.266.214.56.427.88.64a9 9 0 01.96.56c.213.107.4.267.56.48.213.16.4.32.56.48.373.64.453 1.227.24 1.76l-.32.64c-.054.214-.187.427-.4.64-.267-.16-.56-.32-.88-.48-.32-.16-.614-.32-.88-.48a1.222 1.222 0 01-.24-.32c-.107-.266-.134-.506-.08-.72.053-.266.08-.533.08-.8 0-.053-.054-.24-.16-.56-.64.267-1.174.614-1.6 1.04-.427.427-.827.88-1.2 1.36a4.92 4.92 0 00-.96 1.6c-.16.587-.347 1.174-.56 1.76-.427 1.6-.48 3.147-.16 4.64.053.16.08.374.08.64 0 .64.08 1.254.24 1.84l.48 1.76c.213.694.373 1.387.48 2.08.16.694.293 1.387.4 2.08.053.107.08.24.08.4 0 .107.026.24.08.4.266 0 .426-.026.48-.08a65.94 65.94 0 002.64-2.8 27.224 27.224 0 002.32-3.2c.16-.266.346-.586.56-.96.266-.373.453-.693.56-.96.32-.586.693-.986 1.12-1.2.213.107.4.24.56.4.213.107.4.24.56.4.213.107.373.24.48.4.16.107.346.214.56.32.16.107.346.214.56.32.213.054.373.24.48.56-.587.747-1.254 1.6-2 2.56a57.245 57.245 0 01-2 2.48 67.742 67.742 0 01-1.76 2c-.587.587-1.2 1.174-1.84 1.76-.534.48-1.094.96-1.68 1.44a19.17 19.17 0 01-1.68 1.2l-.8.48c-.214.16-.454.374-.72.64-.32.32-.587.534-.8.64-1.707 1.227-3.44 1.387-5.2.48-.854-.426-1.68-.853-2.48-1.28-.8-.48-1.6-.933-2.4-1.36-1.174-.693-1.76-1.68-1.76-2.96 0-.48-.027-.96-.08-1.44-.107-.48-.16-.96-.16-1.44 0-.266-.027-.72-.08-1.36a22.83 22.83 0 01-.24-2 13.529 13.529 0 010-2.08c0-.64.08-1.093.24-1.36zm38.217-14.32h.4c.107.054.214.08.32.08.16 0 .294.054.4.16.427.267 1.12.56 2.08.88.96.267 1.68.48 2.16.64.107.747.134 1.44.08 2.08-.053.587-.106 1.2-.16 1.84-.106.534-.16.934-.16 1.2-.106.907-.186 1.84-.24 2.8 0 .907-.053 1.814-.16 2.72-.106.854-.16 1.707-.16 2.56v2.48c-.053.64-.08 1.28-.08 1.92.054.64.027 1.28-.08 1.92-.053.32-.106.534-.16.64 0 .107-.026.187-.08.24v1.2c.054.054.08.134.08.24.267.054.454.027.56-.08l.32-.48c.48-.586.907-1.12 1.28-1.6.374-.48.694-.96.96-1.44.32-.48.614-.986.88-1.52.267-.533.534-1.173.8-1.92.16-.426.32-.826.48-1.2.214-.373.4-.773.56-1.2.054-.213.187-.426.4-.64.427.107.827.267 1.2.48.374.16.854.48 1.44.96a.54.54 0 01-.16.4c-.693.907-1.253 1.974-1.68 3.2-.213.48-.48 1.067-.8 1.76-.32.694-.586 1.28-.8 1.76-.16.427-.373.854-.64 1.28-.373.587-.746 1.2-1.12 1.84-.32.587-.693 1.174-1.12 1.76a9.464 9.464 0 01-.72.8 9.15 9.15 0 00-.64.72 3.092 3.092 0 01-1.2.08 4.57 4.57 0 01-1.04-.32l-1.92-.8a60.841 60.841 0 01-1.84-.8c-.853-.426-1.546-.906-2.08-1.44-.426-.906-.64-1.813-.64-2.72.054-.906.054-1.84 0-2.8l-.56 1.12c-.16.48-.346.96-.56 1.44l-.48 1.44c-.32.8-.72 1.52-1.2 2.16-.32.427-.64.827-.96 1.2-.266.374-.56.774-.88 1.2-.373.48-.72.747-1.04.8-.266.107-.666.054-1.2-.16a1774.115 1774.115 0 00-2.56-.96 4.568 4.568 0 00-.56-.24 5.338 5.338 0 00-.56-.32c-.8-.266-1.413-.693-1.84-1.28a5.758 5.758 0 01-.72-2.16c-.213-1.226-.32-2.4-.32-3.52v-3.52l.16-2.88c.054-.96.134-1.893.24-2.8 0-.426.027-.8.08-1.12.054-.373.134-.773.24-1.2l1.2-6.24c.107-.693.32-1.226.64-1.6.32.054.694.134 1.12.24.427.054.88.134 1.36.24.48.107.907.214 1.28.32.427.107.747.214.96.32.16.267.24.507.24.72 0 .16-.026.347-.08.56l-.16.96c0 .32-.026.614-.08.88 0 .32-.026.667-.08 1.04 0 .32-.026.64-.08.96a3.74 3.74 0 00-.08.72v.64c-.053.534-.08 1.067-.08 1.6 0 .534-.053 1.067-.16 1.6-.106.267-.16.56-.16.88.054.267.08.534.08.8v2.88c0 .907-.053 1.84-.16 2.8a2.45 2.45 0 000 .88c.054.32.08.64.08.96v3.2c0 .267.027.294.08.08.054-.213.08-.186.08.08 0 .107.027.187.08.24.054 0 .107.054.16.16a.623.623 0 01.24-.08c.054 0 .107-.026.16-.08l.32-.32v-.08c0-.053.107-.186.32-.4.16-.213.32-.4.48-.56.16-.213.294-.453.4-.72.267-.48.507-.96.72-1.44l.64-1.44a215.337 215.337 0 001.68-4.08l1.76-4.16c.427-1.12.8-2.266 1.12-3.44.374-1.173.667-2.373.88-3.6.107-.586.214-1.146.32-1.68.107-.586.24-1.173.4-1.76 0-.16.027-.32.08-.48.107-.16.187-.32.24-.48zm23.113 12.56c-.266.107-.426.24-.48.4 0 .16-.053.32-.16.48-.16.374-.293.747-.4 1.12-.106.374-.24.747-.4 1.12l-.48 1.28c-.16.374-.346.747-.56 1.12a31.315 31.315 0 00-1.52 3.36c-.426 1.12-.853 2.267-1.28 3.44l-.8 1.92c-.213.64-.453 1.28-.72 1.92-.16.534-.48.907-.96 1.12a58.882 58.882 0 00-1.68-.64 13.336 13.336 0 01-1.68-.64c-.586-.32-1.066-.8-1.44-1.44a29.185 29.185 0 01-.56-3.76 24.198 24.198 0 010-3.92c.054-1.226.134-2.426.24-3.6a21.69 21.69 0 01.48-3.6c.16-.96.347-1.893.56-2.8.214-.96.4-1.92.56-2.88.107-.533.187-1.04.24-1.52.054-.48.134-.986.24-1.52.107-.373.16-.72.16-1.04.054-.32.134-.666.24-1.04a.983.983 0 01.16-.24.895.895 0 00.16-.24c.32-.106.667-.08 1.04.08a9.36 9.36 0 011.44.88c.48.267.987.534 1.52.8.107.107.214.24.32.4.16.107.32.24.48.4v.64a.983.983 0 010 .56v1.84c0 .587-.026 1.2-.08 1.84l-.16 2.24a32.846 32.846 0 01-.24 2.16c-.053.267-.08.56-.08.88 0 .267-.026.534-.08.8 0 .587-.026 1.174-.08 1.76v1.84a2.46 2.46 0 00.48-.64c.427-.746.8-1.493 1.12-2.24.32-.746.614-1.493.88-2.24l.32-.8c.16-.32.294-.613.4-.88a41.518 41.518 0 001.44-3.2c.48-1.12.934-2.213 1.36-3.28.107-.32.24-.613.4-.88.16-.32.32-.613.48-.88.16-.266.294-.533.4-.8.16-.32.267-.64.32-.96.054-.053.08-.106.08-.16l.16-.16h.32l1.76.8c.587.214 1.12.534 1.6.96.427.427.64.987.64 1.68 0 .534-.026 1.067-.08 1.6 0 .48-.053.96-.16 1.44-.053.107-.08.267-.08.48-.106.747-.186 1.52-.24 2.32 0 .747-.053 1.494-.16 2.24l-.16 1.6c0 .48-.026.96-.08 1.44v1.2l.4-.8.32-.64c.427-1.066.88-2.08 1.36-3.04a89.311 89.311 0 011.68-3.04l1.28-2.56c.48-.906.934-1.813 1.36-2.72.267-.533.507-1.04.72-1.52.214-.533.454-1.04.72-1.52.107-.106.214-.186.32-.24.534.107 1.014.32 1.44.64.64.427 1.28.747 1.92.96 1.014.374 1.574 1.147 1.68 2.32a84.24 84.24 0 01.24 3.68c.107 1.227.24 2.454.4 3.68.107.747.16 1.494.16 2.24 0 .694.054 1.414.16 2.16.16 2.187.24 4.32.24 6.4v.72c.16.107.267.134.32.08a.983.983 0 01.24-.16c1.014-1.013 2.054-2.266 3.12-3.76 1.12-1.546 2.027-2.933 2.72-4.16.107-.266.24-.506.4-.72.16-.213.32-.453.48-.72.427-.213.774-.373 1.04-.48.267.214.534.4.8.56.32.16.614.32.88.48.054.214.08.4.08.56 0 .16.027.347.08.56a59 59 0 01-1.52 2.8 157.967 157.967 0 00-1.6 2.72c-.106.267-.24.507-.4.72a4.07 4.07 0 01-.48.72c-.586.747-1.2 1.52-1.84 2.32-.586.8-1.2 1.574-1.84 2.32-.106.214-.266.4-.48.56-.16.107-.346.24-.56.4h-.8c-.266 0-.533.027-.8.08l-2.72-1.28c-.853-.426-1.733-.853-2.64-1.28-1.173-.586-2.053-1.546-2.64-2.88-.213-.48-.4-.96-.56-1.44a8.598 8.598 0 01-.16-1.68v-3.36c0-.16-.026-.32-.08-.48v-.8c-.266.64-.506 1.227-.72 1.76l-.48 1.44a342.262 342.262 0 01-1.6 4.24 31.326 31.326 0 01-1.92 4.08c-.213.374-.426.72-.64 1.04a.895.895 0 01-.16.24.983.983 0 00-.16.24c-.426.16-.88.134-1.36-.08-.906-.426-1.84-.853-2.8-1.28-.746-.32-1.493-.8-2.24-1.44a6.378 6.378 0 01-.24-1.68c.054-.586.134-1.173.24-1.76a23.3 23.3 0 00.24-1.92c.054-.693.134-1.36.24-2 .107-.693.214-1.36.32-2l.48-1.92c.054-.266.08-.506.08-.72a1.996 1.996 0 000-.8c.267-.053.32-.24.16-.56-.053.16-.08.347-.08.56z" fill="#fff"/>
  <path d="M34.979 24.859l1.69-.719 2.112 4.97 6.046-2.57-2.112-4.97 1.69-.718 4.921 11.58-1.69.718-2.203-5.185-6.047 2.57 2.204 5.185-1.69.718-4.921-11.58zM55.014 16.916l1.678-.547 8.67 10.41-1.78.58-2.168-2.588-5.29 1.721-.194 3.357-1.797.585.881-13.518zm5.447 6.556l-3.978-4.895-.335 6.299 4.313-1.404zM65.487 13.837l1.698-.407 8.443 7.73-2.212-9.224 1.803-.432 2.934 12.235-1.715.411-8.444-7.73 2.212 9.224-1.785.428-2.934-12.235zM80.722 10.498l4.002-.62c1.34-.206 2.541-.137 3.602.209 1.062.346 1.925.941 2.59 1.785.676.843 1.112 1.893 1.306 3.15.32 2.063-.038 3.721-1.07 4.974-1.023 1.239-2.608 2.024-4.755 2.356l-3.753.58-1.922-12.434zm5.424 10.344c1.66-.256 2.842-.858 3.546-1.804.704-.947.936-2.191.698-3.733-.22-1.423-.803-2.486-1.75-3.19-.935-.706-2.155-.942-3.661-.71l-2.206.342 1.452 9.392 1.92-.297zM114.073 20.369c-1.296.024-2.453-.225-3.471-.746a5.847 5.847 0 01-2.399-2.242c-.583-.985-.886-2.132-.91-3.44-.024-1.308.236-2.465.782-3.47a5.808 5.808 0 012.315-2.348c.997-.559 2.144-.85 3.44-.874 1.728-.032 3.182.38 4.362 1.234l.032 1.763c-1.061-.904-2.461-1.34-4.201-1.308-.972.018-1.832.232-2.58.642-.737.41-1.308.99-1.714 1.742-.407.74-.601 1.601-.583 2.585.019.984.245 1.844.678 2.58a4.394 4.394 0 001.796 1.677c.763.382 1.624.564 2.584.546.888-.016 1.678-.145 2.369-.386a5.887 5.887 0 001.941-1.17l.033 1.782c-1.063.92-2.554 1.397-4.474 1.433zM123.054 7.683l5.05.267c1.343.071 2.356.45 3.041 1.134.684.685.994 1.651.928 2.897-.049.923-.336 1.695-.862 2.316-.525.61-1.243 1.004-2.153 1.184l2.498 5.251-1.906-.1-2.415-5.104-2.751-.145-.262 4.961-1.834-.097.666-12.564zm4.424 6.308c.803.043 1.448-.11 1.935-.456.5-.358.769-.909.808-1.652.044-.814-.159-1.408-.608-1.78-.437-.372-1.069-.58-1.896-.623l-2.912-.155-.239 4.512 2.912.154zM140.168 9.149l1.75.219 3.424 13.107-1.858-.232-.862-3.264-5.519-.69-1.603 2.957-1.875-.235 6.543-11.862zm2.144 8.25l-1.521-6.123-2.98 5.56 4.501.562zM150.895 10.825l8.139 1.614-.301 1.518-6.338-1.256-.781 3.937 4.732.938-.283 1.43-4.732-.938-1.082 5.456-1.801-.357 2.447-12.342zM165.736 15.797l-3.778-.991.393-1.498 9.349 2.453-.392 1.497-3.778-.991-2.8 10.673-1.793-.47 2.799-10.673zM174.119 16.602l7.863 2.652-.495 1.467-6.123-2.065-1.271 3.77 4.571 1.54-.489 1.45-4.571-1.54-1.277 3.786 6.124 2.065-.489 1.45-7.863-2.652 4.02-11.923zM186.453 20.679l3.719 1.604c1.245.537 2.225 1.234 2.94 2.091.715.858 1.13 1.82 1.244 2.89.125 1.072-.064 2.193-.568 3.361-.827 1.917-2.011 3.132-3.551 3.643-1.525.506-3.285.328-5.279-.532l-3.488-1.504 4.983-11.553zm-.906 11.645c1.543.666 2.864.784 3.963.357 1.099-.428 1.958-1.358 2.576-2.79.57-1.322.641-2.533.214-3.632-.417-1.095-1.325-1.944-2.724-2.548l-2.05-.884-3.764 8.727 1.785.77z" fill="#7D9B6B"/>
  <defs>
    <clipPath id="clip0">
      <path fill="#fff" transform="translate(110 41.019)" d="M0 0h16v16H0z"/>
    </clipPath>
  </defs>
</svg>
