<svg width="235" height="200" viewBox="0 0 235 200" fill="none"
  xmlns="http://www.w3.org/2000/svg">
  <path d="M79.3857 50.0131H75.7295V52.4887H80.0205V54.0185H73.8252V44.7763H80.0078V46.3188H75.7295V48.5214H79.3857V50.0131ZM85.9302 51.5937C85.9302 51.234 85.8032 50.9589 85.5493 50.7685C85.2954 50.5738 84.8384 50.3707 84.1782 50.1591C83.5181 49.9433 82.9954 49.7317 82.6104 49.5244C81.5609 48.9573 81.0361 48.1935 81.0361 47.2328C81.0361 46.7335 81.1758 46.2892 81.4551 45.8998C81.7386 45.5063 82.1427 45.1995 82.6675 44.9794C83.1965 44.7594 83.7889 44.6494 84.4448 44.6494C85.105 44.6494 85.6932 44.77 86.2095 45.0112C86.7257 45.2481 87.1257 45.5846 87.4092 46.0204C87.6969 46.4563 87.8408 46.9514 87.8408 47.5058H85.9365C85.9365 47.0826 85.8032 46.7547 85.5366 46.5219C85.27 46.2849 84.8955 46.1664 84.4131 46.1664C83.9476 46.1664 83.5858 46.2659 83.3276 46.4648C83.0695 46.6594 82.9404 46.9176 82.9404 47.2392C82.9404 47.5397 83.0907 47.7914 83.3911 47.9946C83.6958 48.1977 84.1423 48.3881 84.7305 48.5659C85.8138 48.8917 86.603 49.2958 87.0981 49.7783C87.5933 50.2607 87.8408 50.8616 87.8408 51.581C87.8408 52.3808 87.5382 53.0092 86.9331 53.4662C86.328 53.919 85.5133 54.1454 84.4893 54.1454C83.7783 54.1454 83.1309 54.0164 82.5469 53.7582C81.9629 53.4959 81.5164 53.1383 81.2075 52.6855C80.9028 52.2327 80.7505 51.7079 80.7505 51.1113H82.6611C82.6611 52.1311 83.2705 52.6411 84.4893 52.6411C84.9421 52.6411 85.2954 52.5501 85.5493 52.3681C85.8032 52.1819 85.9302 51.9238 85.9302 51.5937ZM96.0928 46.3188H93.2617V54.0185H91.3574V46.3188H88.5645V44.7763H96.0928V46.3188ZM97.1846 54.0185V44.7763H100.028C100.841 44.7763 101.567 44.9604 102.206 45.3286C102.849 45.6925 103.35 46.213 103.71 46.8901C104.07 47.5629 104.25 48.3289 104.25 49.1879V49.6132C104.25 50.4723 104.072 51.2361 103.716 51.9047C103.365 52.5733 102.868 53.0917 102.225 53.4599C101.581 53.8281 100.856 54.0143 100.047 54.0185H97.1846ZM99.0889 46.3188V52.4887H100.009C100.754 52.4887 101.323 52.2454 101.717 51.7587C102.11 51.2721 102.311 50.5759 102.32 49.6703V49.1816C102.32 48.2421 102.125 47.5312 101.736 47.0488C101.347 46.5621 100.777 46.3188 100.028 46.3188H99.0889ZM137.676 54.0185H131.341V52.7617L134.331 49.5751C134.742 49.1266 135.044 48.7351 135.239 48.4008C135.438 48.0665 135.537 47.7491 135.537 47.4487C135.537 47.0382 135.433 46.7166 135.226 46.4838C135.019 46.2468 134.722 46.1284 134.337 46.1284C133.923 46.1284 133.595 46.2722 133.354 46.56C133.117 46.8435 132.998 47.218 132.998 47.6835H131.157C131.157 47.1207 131.291 46.6065 131.557 46.1411C131.828 45.6756 132.209 45.3116 132.7 45.0493C133.191 44.7827 133.747 44.6494 134.369 44.6494C135.321 44.6494 136.06 44.8779 136.584 45.3349C137.113 45.7919 137.378 46.4373 137.378 47.2709C137.378 47.728 137.259 48.1935 137.022 48.6674C136.785 49.1414 136.379 49.6936 135.804 50.3242L133.703 52.5395H137.676V54.0185ZM145.027 50.1972C145.027 51.4752 144.762 52.4527 144.233 53.1298C143.704 53.8069 142.93 54.1454 141.91 54.1454C140.903 54.1454 140.133 53.8133 139.6 53.1489C139.066 52.4845 138.793 51.5323 138.781 50.2924V48.5912C138.781 47.3006 139.047 46.3209 139.581 45.6523C140.118 44.9837 140.89 44.6494 141.897 44.6494C142.905 44.6494 143.675 44.9815 144.208 45.6459C144.741 46.3061 145.014 47.2561 145.027 48.496V50.1972ZM143.192 48.331C143.192 47.565 143.087 47.0086 142.875 46.6616C142.668 46.3103 142.342 46.1347 141.897 46.1347C141.466 46.1347 141.146 46.3019 140.939 46.6362C140.736 46.9662 140.628 47.4846 140.615 48.1913V50.4384C140.615 51.1917 140.717 51.7524 140.92 52.1205C141.127 52.4845 141.457 52.6664 141.91 52.6664C142.359 52.6664 142.682 52.4908 142.881 52.1396C143.08 51.7884 143.184 51.2509 143.192 50.5273V48.331ZM152.606 54.0185H146.271V52.7617L149.261 49.5751C149.671 49.1266 149.974 48.7351 150.168 48.4008C150.367 48.0665 150.467 47.7491 150.467 47.4487C150.467 47.0382 150.363 46.7166 150.156 46.4838C149.948 46.2468 149.652 46.1284 149.267 46.1284C148.852 46.1284 148.524 46.2722 148.283 46.56C148.046 46.8435 147.928 47.218 147.928 47.6835H146.087C146.087 47.1207 146.22 46.6065 146.487 46.1411C146.758 45.6756 147.139 45.3116 147.629 45.0493C148.12 44.7827 148.677 44.6494 149.299 44.6494C150.251 44.6494 150.989 44.8779 151.514 45.3349C152.043 45.7919 152.308 46.4373 152.308 47.2709C152.308 47.728 152.189 48.1935 151.952 48.6674C151.715 49.1414 151.309 49.6936 150.733 50.3242L148.632 52.5395H152.606V54.0185ZM159.957 50.1972C159.957 51.4752 159.692 52.4527 159.163 53.1298C158.634 53.8069 157.86 54.1454 156.84 54.1454C155.833 54.1454 155.062 53.8133 154.529 53.1489C153.996 52.4845 153.723 51.5323 153.71 50.2924V48.5912C153.71 47.3006 153.977 46.3209 154.51 45.6523C155.048 44.9837 155.82 44.6494 156.827 44.6494C157.834 44.6494 158.604 44.9815 159.138 45.6459C159.671 46.3061 159.944 47.2561 159.957 48.496V50.1972ZM158.122 48.331C158.122 47.565 158.016 47.0086 157.805 46.6616C157.597 46.3103 157.271 46.1347 156.827 46.1347C156.396 46.1347 156.076 46.3019 155.869 46.6362C155.666 46.9662 155.558 47.4846 155.545 48.1913V50.4384C155.545 51.1917 155.646 51.7524 155.85 52.1205C156.057 52.4845 156.387 52.6664 156.84 52.6664C157.288 52.6664 157.612 52.4908 157.811 52.1396C158.01 51.7884 158.114 51.2509 158.122 50.5273V48.331Z" fill="white"/>
  <path d="M63.9318 182.946L78.1094 181.795L182.25 177.401C180.573 181.374 181.767 185.08 182.832 187.818C180.836 187.275 179.649 187.495 179.305 187.674L178.416 184.75C161.639 180.367 107.834 183.013 65.7581 187.64L63.9318 182.946Z" fill="white"/>
  <g clip-path="url(#clip0)">
    <path d="M120.924 44.1055C119.249 44.1055 117.866 43.0185 115.761 43.0185C114.981 43.0185 114.282 43.1555 113.634 43.3939C113.724 43.1593 113.762 42.9082 113.747 42.6576C113.691 41.769 112.963 41.0562 112.073 41.02C111.073 40.9793 110.25 41.7777 110.25 42.7685C110.25 43.363 110.547 43.888 111 44.2043V56.2685C111 56.6827 111.336 57.0185 111.75 57.0185H112.25C112.664 57.0185 113 56.6827 113 56.2685V53.3185C113.885 52.9415 114.987 52.6272 116.576 52.6272C118.251 52.6272 119.634 53.7141 121.739 53.7141C123.244 53.7141 124.447 53.205 125.567 52.4373C125.839 52.2514 126 51.9426 126 51.6136V44.0168C126 43.2857 125.242 42.8021 124.579 43.11C123.506 43.6084 122.189 44.1055 120.924 44.1055V44.1055Z" fill="white"/>
  </g>
  <path d="M33.44 87.7785C33.2267 87.6718 33.0133 87.5652 32.8 87.4585C32.5867 87.3518 32.3733 87.2452 32.16 87.1385C31.9467 86.9785 31.76 86.7918 31.6 86.5785C31.44 85.8318 31.3867 85.1118 31.44 84.4185C31.5467 83.6718 31.7333 82.9252 32 82.1785C32.32 81.0585 32.7467 79.9918 33.28 78.9785C33.8667 77.9652 34.5067 76.9785 35.2 76.0185C36.16 74.6318 37.2267 73.4318 38.4 72.4185C39.6267 71.3518 40.9333 70.3918 42.32 69.5385C44.0267 68.5252 45.9467 67.8585 48.08 67.5385C48.1867 67.5385 48.2933 67.5385 48.4 67.5385C48.56 67.4852 48.6933 67.4585 48.8 67.4585C49.6533 67.1918 50.4267 67.1918 51.12 67.4585C51.8133 67.7252 52.48 68.0718 53.12 68.4985C53.3333 68.6052 53.52 68.7385 53.68 68.8985C53.84 69.0585 54.0267 69.2185 54.24 69.3785C55.2 70.2852 56.1333 71.2185 57.04 72.1785C58.9067 74.1518 59.68 76.4185 59.36 78.9785C59.2533 79.7785 59.0933 80.5518 58.88 81.2985C58.6667 82.0452 58.4 82.7918 58.08 83.5385C57.5467 84.6052 56.9867 85.6718 56.4 86.7385C55.8667 87.7518 55.28 88.7385 54.64 89.6985C54.5333 89.8052 54.4533 89.9118 54.4 90.0185C54.4 90.1252 54.3467 90.2318 54.24 90.3385C54.4 90.4985 54.48 90.5785 54.48 90.5785C55.5467 90.6318 56.48 91.1118 57.28 92.0185C57.7067 92.4452 58.1333 92.8718 58.56 93.2985C58.9867 93.6718 59.4133 94.0718 59.84 94.4985C60.3733 95.1385 60.9333 95.8585 61.52 96.6585C62.0533 97.5118 62.3733 98.5252 62.48 99.6985C62.5333 101.298 62.5333 102.872 62.48 104.418C62.48 104.845 62.4267 105.245 62.32 105.618C62.2667 105.938 62.2133 106.312 62.16 106.738C61.5733 109.885 60.3733 112.765 58.56 115.378C57.9733 116.178 57.36 116.952 56.72 117.698C56.08 118.392 55.3867 119.058 54.64 119.698C54 120.285 53.28 120.738 52.48 121.058C51.7333 121.378 50.96 121.645 50.16 121.858C49.6267 122.018 49.0933 122.152 48.56 122.258C48.08 122.418 47.5733 122.605 47.04 122.818C46.4533 123.032 45.84 123.192 45.2 123.298C44.56 123.458 43.92 123.512 43.28 123.458C42.0533 123.352 40.88 123.085 39.76 122.658C38.64 122.285 37.6 121.645 36.64 120.738L33.04 117.618C32.4533 117.192 31.9467 116.685 31.52 116.098C31.0933 115.512 30.72 114.925 30.4 114.338C29.8133 113.218 29.8667 112.098 30.56 110.978C30.8267 110.658 31.0667 110.365 31.28 110.098C31.5467 109.778 31.8667 109.538 32.24 109.378C32.56 109.485 32.8267 109.645 33.04 109.858C33.3067 110.072 33.5467 110.312 33.76 110.578C34.0267 110.845 34.2667 111.112 34.48 111.378C34.6933 111.645 34.9867 111.832 35.36 111.938C35.5733 112.045 35.7333 112.205 35.84 112.418C36 112.578 36.1867 112.738 36.4 112.898C36.1867 113.272 35.9733 113.618 35.76 113.938C35.6 114.205 35.4133 114.498 35.2 114.818C35.0933 115.245 35.04 115.698 35.04 116.178C35.0933 116.605 35.2533 117.032 35.52 117.458C35.9467 117.725 36.4 117.885 36.88 117.938C37.36 117.992 37.84 118.072 38.32 118.178C38.4267 118.125 38.5067 118.098 38.56 118.098C38.6133 118.045 38.6933 117.965 38.8 117.858C38.8 117.592 38.8 117.352 38.8 117.138C38.8533 116.925 38.88 116.685 38.88 116.418C38.8267 115.778 38.7733 115.165 38.72 114.578C38.72 113.938 38.6933 113.325 38.64 112.738C38.64 112.258 38.6133 111.805 38.56 111.378C38.56 110.898 38.5867 110.418 38.64 109.938C38.7467 109.032 38.8 108.152 38.8 107.298C38.8 106.392 38.8267 105.485 38.88 104.578C38.9333 103.032 38.96 101.512 38.96 100.018C39.0133 98.4718 39.0933 96.9252 39.2 95.3785C39.3067 94.1518 39.4133 92.9518 39.52 91.7785C39.6267 90.5518 39.7333 89.3252 39.84 88.0985C39.9467 87.1385 40.08 86.1785 40.24 85.2185C40.4 84.2585 40.56 83.2985 40.72 82.3385C40.7733 81.9652 40.9067 81.5918 41.12 81.2185C41.1733 81.1118 41.3067 80.9518 41.52 80.7385C42.0533 80.9518 42.5333 81.1918 42.96 81.4585C43.3867 81.7252 43.8133 81.9918 44.24 82.2585C44.4 82.8452 44.4533 83.4318 44.4 84.0185C44.3467 84.6052 44.2667 85.1918 44.16 85.7785C44.0533 86.6852 44 87.5918 44 88.4985C44.0533 89.3518 44.0533 90.2318 44 91.1385C44.1067 91.0852 44.1867 91.0852 44.24 91.1385C44.2933 91.1385 44.3467 91.1118 44.4 91.0585C45.68 89.7785 46.8533 88.4452 47.92 87.0585C49.04 85.6718 50.0267 84.1785 50.88 82.5785C51.0933 82.1518 51.3067 81.7785 51.52 81.4585C51.7333 81.0852 51.9467 80.6852 52.16 80.2585C52.7467 79.1918 53.2533 77.9118 53.68 76.4185C53.7867 75.9918 53.8667 75.5652 53.92 75.1385C53.9733 74.6585 54.0533 74.1785 54.16 73.6985C54.2133 73.3785 54.1867 73.0585 54.08 72.7385C53.9733 72.4185 53.8667 72.0985 53.76 71.7785C53.5467 71.6718 53.36 71.6185 53.2 71.6185C52.1867 71.5118 51.2533 71.5385 50.4 71.6985C50.08 71.8052 49.7333 71.8585 49.36 71.8585C49.04 71.8585 48.6933 71.9118 48.32 72.0185C47.0933 72.2852 45.92 72.7118 44.8 73.2985C43.68 73.8318 42.6133 74.4718 41.6 75.2185C38.8267 77.1385 36.6133 79.7252 34.96 82.9785C34.5867 83.6185 34.2933 84.2852 34.08 84.9785C33.92 85.6718 33.7867 86.3918 33.68 87.1385C33.68 87.2452 33.6533 87.3252 33.6 87.3785C33.6 87.4318 33.6 87.5118 33.6 87.6185C33.6 87.6185 33.5467 87.6718 33.44 87.7785ZM44.08 98.4185C44.08 99.4318 44.0533 100.418 44 101.378C44 102.338 44.0533 103.298 44.16 104.258C44.2133 104.845 44.24 105.405 44.24 105.938C44.2933 106.472 44.32 107.032 44.32 107.618C44.32 109.005 44.3467 110.365 44.4 111.698C44.5067 112.978 44.6133 114.285 44.72 115.618C44.72 115.672 44.7733 115.805 44.88 116.018C44.9333 116.018 44.96 116.045 44.96 116.098C45.0133 116.098 45.0667 116.098 45.12 116.098C45.9733 115.832 46.7467 115.485 47.44 115.058C48.1867 114.578 48.8533 113.992 49.44 113.298C49.6533 113.032 49.84 112.765 50 112.498C50.2133 112.232 50.4533 111.965 50.72 111.698C52 110.205 53.12 108.632 54.08 106.978C55.0933 105.272 55.84 103.458 56.32 101.538C56.3733 101.432 56.4 101.325 56.4 101.218C56.4533 101.112 56.5067 101.005 56.56 100.898C56.9333 99.8852 57.1467 98.8718 57.2 97.8585C57.3067 96.8452 57.36 95.8052 57.36 94.7385C57.36 94.6318 57.3333 94.5252 57.28 94.4185C57.2267 94.2585 57.1733 94.1252 57.12 94.0185C54.72 93.8585 52.4533 94.1785 50.32 94.9785C50 95.2985 49.68 95.6452 49.36 96.0185C49.04 96.3385 48.6933 96.6585 48.32 96.9785C48 97.2985 47.6533 97.6452 47.28 98.0185C46.96 98.3385 46.5867 98.6318 46.16 98.8985C45.9467 98.7385 45.76 98.5785 45.6 98.4185C45.44 98.2585 45.28 98.1252 45.12 98.0185C45.0667 97.9652 44.9333 97.9385 44.72 97.9385C44.6133 97.9918 44.5067 98.0718 44.4 98.1785C44.3467 98.2318 44.24 98.3118 44.08 98.4185ZM80.7188 114.818C80.5588 114.872 80.4521 114.952 80.3987 115.058C80.3454 115.165 80.2654 115.272 80.1588 115.378L78.7188 118.258C78.4521 118.685 78.1588 119.112 77.8388 119.538C77.5188 119.912 77.1187 120.258 76.6388 120.578C76.4788 120.525 76.3188 120.498 76.1588 120.498C75.9987 120.498 75.8387 120.472 75.6787 120.418C74.5054 119.992 73.3321 119.565 72.1587 119.138C71.0387 118.712 69.8921 118.285 68.7187 117.858C67.4921 117.432 66.7187 116.498 66.3987 115.058C66.2921 114.632 66.2121 114.205 66.1587 113.778C66.1054 113.298 66.0521 112.818 65.9987 112.338C65.8921 110.472 65.9721 108.658 66.2387 106.898C66.5054 105.138 66.9054 103.378 67.4387 101.618C67.7054 100.765 68.0254 99.9652 68.3987 99.2185C68.8254 98.4185 69.2521 97.6452 69.6787 96.8985C69.8921 96.5252 70.1054 96.1518 70.3187 95.7785C70.5321 95.4052 70.7721 95.0585 71.0387 94.7385C72.2121 93.0852 73.6521 91.9918 75.3587 91.4585C75.5721 91.3518 75.7588 91.2985 75.9187 91.2985C76.1321 91.2452 76.3454 91.1652 76.5588 91.0585C77.7321 91.2718 78.8254 91.6452 79.8388 92.1785C80.9054 92.6585 81.9721 93.1118 83.0388 93.5385C83.3588 93.0585 83.5188 92.5252 83.5188 91.9385C83.5188 91.3518 83.7854 90.8718 84.3188 90.4985C84.9054 90.6052 85.4388 90.7918 85.9188 91.0585C86.4521 91.3252 87.0121 91.5385 87.5988 91.6985C87.7054 91.7518 87.7854 91.8318 87.8387 91.9385C87.9454 91.9918 88.0521 92.0718 88.1588 92.1785C88.2121 92.4452 88.2388 92.8718 88.2388 93.4585C88.2388 94.3118 88.2388 95.1652 88.2388 96.0185C88.2388 96.8718 88.1854 97.7518 88.0788 98.6585C87.9721 99.7252 87.9188 100.765 87.9188 101.778C87.9188 102.792 87.8921 103.832 87.8387 104.898C87.8387 106.765 87.8387 108.632 87.8387 110.498C87.8387 112.312 87.8654 114.152 87.9188 116.018C87.9188 116.232 87.8921 116.445 87.8387 116.658C87.8387 116.872 87.9454 117.085 88.1588 117.298C88.4254 117.298 88.6121 117.245 88.7188 117.138C88.8254 116.978 88.9321 116.845 89.0388 116.738C89.3054 116.472 89.5721 116.205 89.8387 115.938C90.1054 115.672 90.3454 115.378 90.5588 115.058C90.8254 114.792 91.0388 114.498 91.1988 114.178C91.3588 113.858 91.5454 113.538 91.7588 113.218L93.9187 109.378C94.1854 108.952 94.4788 108.365 94.7988 107.618C95.1721 106.818 95.3854 106.152 95.4388 105.618C95.4388 105.352 95.6254 105.112 95.9988 104.898C96.4788 105.005 96.9321 105.192 97.3588 105.458C97.7854 105.725 98.2654 105.885 98.7988 105.938C98.9054 106.098 98.9588 106.232 98.9588 106.338C99.0121 106.445 99.0654 106.552 99.1188 106.658C98.9054 106.925 98.7188 107.165 98.5588 107.378C98.3988 107.592 98.2654 107.832 98.1588 108.098C97.9988 108.365 97.8654 108.632 97.7588 108.898C97.7054 109.112 97.6254 109.352 97.5188 109.618C96.9321 110.685 96.2921 111.912 95.5988 113.298C94.9588 114.685 94.3454 115.912 93.7588 116.978C93.5988 117.352 93.4388 117.725 93.2788 118.098C93.1188 118.472 92.9321 118.845 92.7188 119.218C92.6121 119.485 92.4788 119.752 92.3188 120.018C92.1588 120.232 91.9721 120.472 91.7588 120.738C91.1188 121.645 90.2654 121.912 89.1988 121.538C88.5054 121.272 87.8121 121.005 87.1188 120.738C86.4254 120.525 85.7321 120.285 85.0388 120.018C84.7721 119.912 84.4788 119.805 84.1588 119.698C83.8921 119.592 83.6254 119.485 83.3587 119.378C82.6121 119.165 82.0521 118.658 81.6788 117.858C81.4121 117.485 81.2254 117.112 81.1188 116.738C81.0121 116.312 80.9054 115.885 80.7988 115.458C80.7988 115.352 80.7721 115.245 80.7188 115.138C80.7188 115.032 80.7188 114.925 80.7188 114.818ZM80.3988 93.9385C79.8654 94.2052 79.3588 94.4985 78.8788 94.8185C78.4521 95.0852 78.0788 95.4852 77.7588 96.0185C77.5988 96.3385 77.4121 96.6585 77.1988 96.9785C77.0388 97.2452 76.8788 97.5652 76.7187 97.9385C75.3321 100.872 74.5588 103.965 74.3987 107.218C74.3454 108.125 74.3188 109.058 74.3188 110.018C74.3721 110.925 74.3987 111.832 74.3987 112.738C74.3987 113.005 74.5587 113.112 74.8788 113.058C75.1454 112.632 75.4121 112.178 75.6787 111.698C75.9988 111.218 76.2921 110.712 76.5587 110.178C76.9854 109.272 77.4121 108.392 77.8388 107.538C78.3188 106.685 78.7721 105.805 79.1987 104.898C79.5187 104.098 79.8388 103.325 80.1588 102.578C80.4788 101.778 80.8521 101.005 81.2788 100.258C81.3854 99.9918 81.4921 99.7252 81.5988 99.4585C81.7054 99.1385 81.8388 98.8185 81.9988 98.4985C81.6788 98.2852 81.4388 98.1518 81.2788 98.0985C81.3854 97.2985 81.4121 96.5518 81.3588 95.8585C81.3054 95.1652 80.9854 94.5252 80.3988 93.9385ZM102.983 114.098C103.036 114.098 103.063 114.098 103.063 114.098C103.063 114.045 103.09 114.018 103.143 114.018L103.223 114.018C104.076 112.205 104.85 110.392 105.543 108.578C106.29 106.765 107.036 104.925 107.783 103.058C107.676 102.792 107.543 102.552 107.383 102.338C107.223 102.125 107.09 101.885 106.983 101.618C106.45 100.552 106.023 99.4852 105.703 98.4185C105.383 97.3518 105.223 96.2052 105.223 94.9785L105.223 92.2585C105.383 90.0185 106.023 87.9918 107.143 86.1785C107.196 86.0718 107.25 85.9918 107.303 85.9385C107.356 85.8852 107.41 85.8052 107.463 85.6985C107.996 85.4318 108.556 85.4585 109.143 85.7785C109.676 86.1518 110.21 86.4985 110.743 86.8185C111.276 87.0852 111.783 87.4318 112.263 87.8585C112.69 88.1785 113.036 88.5518 113.303 88.9785C113.57 89.3518 113.836 89.7252 114.103 90.0985C114.21 90.2585 114.316 90.4985 114.423 90.8185C114.53 91.7785 114.583 92.7385 114.583 93.6985C114.636 94.6052 114.53 95.5118 114.263 96.4185C113.943 97.5385 113.65 98.6852 113.383 99.8585C113.116 100.978 112.77 102.098 112.343 103.218C112.236 103.752 112.236 104.152 112.343 104.418C112.503 104.792 112.796 104.925 113.223 104.818C113.436 104.765 113.623 104.712 113.783 104.658C113.943 104.605 114.103 104.552 114.263 104.498C114.903 104.125 115.383 103.645 115.703 103.058C116.076 102.418 116.45 101.805 116.823 101.218C117.09 101.165 117.303 101.192 117.463 101.298C117.676 101.405 117.863 101.512 118.023 101.618C118.236 101.778 118.423 101.938 118.583 102.098C118.743 102.258 118.903 102.418 119.063 102.578C119.383 102.898 119.676 103.085 119.943 103.138C120.37 103.192 120.716 103.485 120.983 104.018C120.876 104.125 120.823 104.232 120.823 104.338C120.823 104.392 120.77 104.445 120.663 104.498C120.343 104.712 120.076 104.978 119.863 105.298C119.703 105.565 119.49 105.832 119.223 106.098C118.956 106.525 118.663 106.898 118.343 107.218C117.863 107.698 117.276 107.938 116.583 107.938C115.943 107.992 115.33 107.938 114.743 107.778C114.21 107.565 113.676 107.298 113.143 106.978C112.663 106.658 112.21 106.392 111.783 106.178C111.73 106.125 111.703 106.098 111.703 106.098C111.49 106.205 111.356 106.338 111.303 106.498C111.303 106.605 111.276 106.738 111.223 106.898C110.796 108.018 110.37 109.165 109.943 110.338C109.516 111.458 109.09 112.605 108.663 113.778C108.343 114.525 108.023 115.298 107.703 116.098C107.436 116.898 107.143 117.672 106.823 118.418C106.61 118.952 106.316 119.485 105.943 120.018C105.836 120.178 105.73 120.312 105.623 120.418C105.57 120.578 105.49 120.712 105.383 120.818C105.063 120.712 104.85 120.632 104.743 120.578C104.156 120.258 103.596 119.938 103.063 119.618C102.53 119.245 101.97 118.898 101.383 118.578C100.796 118.205 100.263 117.805 99.7831 117.378C99.3031 116.898 98.8498 116.392 98.4231 115.858C97.7298 114.898 97.2765 113.938 97.0631 112.978C96.9565 112.232 96.8231 111.485 96.6631 110.738C96.5031 109.992 96.3965 109.245 96.3431 108.498C96.2365 107.805 96.1298 107.138 96.0231 106.498C95.9698 105.858 95.8898 105.192 95.7831 104.498C95.7298 103.645 95.7031 102.818 95.7031 102.018C95.7031 101.165 95.7031 100.312 95.7031 99.4585C95.7031 98.2852 95.7831 97.1385 95.9431 96.0185C96.1565 94.8985 96.3965 93.7785 96.6631 92.6585C96.6631 92.5518 96.6898 92.4452 96.7431 92.3385C96.7965 92.1785 96.8498 92.0452 96.9031 91.9385C96.9031 91.9385 96.9831 91.8585 97.1431 91.6985L97.3831 91.6985C97.5431 91.6985 97.6498 91.7252 97.7031 91.7785L98.6631 92.2585C98.9831 92.5252 99.3031 92.7652 99.6231 92.9785C99.9431 93.1918 100.236 93.4052 100.503 93.6185C100.61 93.9385 100.663 94.2318 100.663 94.4985C100.663 94.7118 100.663 94.9518 100.663 95.2185L100.663 99.2185C100.77 100.925 100.903 102.632 101.063 104.338C101.276 105.992 101.596 107.672 102.023 109.378C102.183 110.072 102.316 110.765 102.423 111.458C102.53 112.098 102.663 112.765 102.823 113.458C102.823 113.565 102.876 113.778 102.983 114.098ZM109.943 96.1785C110.21 95.9118 110.37 95.6718 110.423 95.4585C110.476 95.1918 110.556 94.9252 110.663 94.6585C110.77 94.3918 110.85 94.1518 110.903 93.9385C110.956 93.7252 111.01 93.4852 111.063 93.2185C111.116 92.9518 111.143 92.6852 111.143 92.4185C111.143 92.0985 111.143 91.8052 111.143 91.5385C111.143 91.2718 111.143 91.0052 111.143 90.7385C111.143 90.4718 111.063 90.2052 110.903 89.9385C110.53 91.0052 110.236 92.0452 110.023 93.0585C109.863 94.0718 109.836 95.1118 109.943 96.1785ZM130.094 114.818C129.934 114.872 129.827 114.952 129.774 115.058C129.72 115.165 129.64 115.272 129.534 115.378L128.094 118.258C127.827 118.685 127.534 119.112 127.214 119.538C126.894 119.912 126.494 120.258 126.014 120.578C125.854 120.525 125.694 120.498 125.534 120.498C125.374 120.498 125.214 120.472 125.054 120.418C123.88 119.992 122.707 119.565 121.534 119.138C120.414 118.712 119.267 118.285 118.094 117.858C116.867 117.432 116.094 116.498 115.774 115.058C115.667 114.632 115.587 114.205 115.534 113.778C115.48 113.298 115.427 112.818 115.374 112.338C115.267 110.472 115.347 108.658 115.614 106.898C115.88 105.138 116.28 103.378 116.814 101.618C117.08 100.765 117.4 99.9652 117.774 99.2185C118.2 98.4185 118.627 97.6452 119.054 96.8985C119.267 96.5252 119.48 96.1518 119.694 95.7785C119.907 95.4052 120.147 95.0585 120.414 94.7385C121.587 93.0852 123.027 91.9918 124.734 91.4585C124.947 91.3518 125.134 91.2985 125.294 91.2985C125.507 91.2452 125.72 91.1652 125.934 91.0585C127.107 91.2718 128.2 91.6452 129.214 92.1785C130.28 92.6585 131.347 93.1118 132.414 93.5385C132.734 93.0585 132.894 92.5252 132.894 91.9385C132.894 91.3518 133.16 90.8718 133.694 90.4985C134.28 90.6052 134.814 90.7918 135.294 91.0585C135.827 91.3252 136.387 91.5385 136.974 91.6985C137.08 91.7518 137.16 91.8318 137.214 91.9385C137.32 91.9918 137.427 92.0718 137.534 92.1785C137.587 92.4452 137.614 92.8718 137.614 93.4585C137.614 94.3118 137.614 95.1652 137.614 96.0185C137.614 96.8718 137.56 97.7518 137.454 98.6585C137.347 99.7252 137.294 100.765 137.294 101.778C137.294 102.792 137.267 103.832 137.214 104.898C137.214 106.765 137.214 108.632 137.214 110.498C137.214 112.312 137.24 114.152 137.294 116.018C137.294 116.232 137.267 116.445 137.214 116.658C137.214 116.872 137.32 117.085 137.534 117.298C137.8 117.298 137.987 117.245 138.094 117.138C138.2 116.978 138.307 116.845 138.414 116.738C138.68 116.472 138.947 116.205 139.214 115.938C139.48 115.672 139.72 115.378 139.934 115.058C140.2 114.792 140.414 114.498 140.574 114.178C140.734 113.858 140.92 113.538 141.134 113.218L143.294 109.378C143.56 108.952 143.854 108.365 144.174 107.618C144.547 106.818 144.76 106.152 144.814 105.618C144.814 105.352 145 105.112 145.374 104.898C145.854 105.005 146.307 105.192 146.734 105.458C147.16 105.725 147.64 105.885 148.174 105.938C148.28 106.098 148.334 106.232 148.334 106.338C148.387 106.445 148.44 106.552 148.494 106.658C148.28 106.925 148.094 107.165 147.934 107.378C147.774 107.592 147.64 107.832 147.534 108.098C147.374 108.365 147.24 108.632 147.134 108.898C147.08 109.112 147 109.352 146.894 109.618C146.307 110.685 145.667 111.912 144.974 113.298C144.334 114.685 143.72 115.912 143.134 116.978C142.974 117.352 142.814 117.725 142.654 118.098C142.494 118.472 142.307 118.845 142.094 119.218C141.987 119.485 141.854 119.752 141.694 120.018C141.534 120.232 141.347 120.472 141.134 120.738C140.494 121.645 139.64 121.912 138.574 121.538C137.88 121.272 137.187 121.005 136.494 120.738C135.8 120.525 135.107 120.285 134.414 120.018C134.147 119.912 133.854 119.805 133.534 119.698C133.267 119.592 133 119.485 132.734 119.378C131.987 119.165 131.427 118.658 131.054 117.858C130.787 117.485 130.6 117.112 130.494 116.738C130.387 116.312 130.28 115.885 130.174 115.458C130.174 115.352 130.147 115.245 130.094 115.138C130.094 115.032 130.094 114.925 130.094 114.818ZM129.774 93.9385C129.24 94.2052 128.734 94.4985 128.254 94.8185C127.827 95.0852 127.454 95.4852 127.134 96.0185C126.974 96.3385 126.787 96.6585 126.574 96.9785C126.414 97.2452 126.254 97.5652 126.094 97.9385C124.707 100.872 123.934 103.965 123.774 107.218C123.72 108.125 123.694 109.058 123.694 110.018C123.747 110.925 123.774 111.832 123.774 112.738C123.774 113.005 123.934 113.112 124.254 113.058C124.52 112.632 124.787 112.178 125.054 111.698C125.374 111.218 125.667 110.712 125.934 110.178C126.36 109.272 126.787 108.392 127.214 107.538C127.694 106.685 128.147 105.805 128.574 104.898C128.894 104.098 129.214 103.325 129.534 102.578C129.854 101.778 130.227 101.005 130.654 100.258C130.76 99.9918 130.867 99.7252 130.974 99.4585C131.08 99.1385 131.214 98.8185 131.374 98.4985C131.054 98.2852 130.814 98.1518 130.654 98.0985C130.76 97.2985 130.787 96.5518 130.734 95.8585C130.68 95.1652 130.36 94.5252 129.774 93.9385ZM147.558 92.0185C147.985 91.9118 148.331 91.9118 148.598 92.0185C148.918 92.1252 149.211 92.2585 149.478 92.4185C150.011 92.7918 150.545 93.0852 151.078 93.2985C151.345 93.4052 151.558 93.5385 151.718 93.6985C151.931 93.8052 152.091 93.9118 152.198 94.0185C152.411 94.3918 152.518 94.7385 152.518 95.0585C152.571 95.3785 152.571 95.6718 152.518 95.9385C152.358 97.2185 152.385 98.3918 152.598 99.4585C152.598 99.6185 152.678 99.8052 152.838 100.018C153.531 98.6318 154.278 97.3518 155.078 96.1785C155.931 95.0052 156.811 93.8318 157.718 92.6585C158.038 92.4985 158.358 92.4985 158.678 92.6585L159.638 93.1385C160.065 93.4052 160.491 93.6452 160.918 93.8585C161.345 94.0718 161.771 94.3118 162.198 94.5785C162.838 94.8985 163.345 95.3252 163.718 95.8585C164.091 96.3918 164.118 96.9252 163.798 97.4585C163.158 97.2452 162.571 96.9518 162.038 96.5785C161.505 96.1518 160.891 95.8585 160.198 95.6985C159.291 96.3918 158.518 97.1918 157.878 98.0985C156.598 99.8052 155.691 101.618 155.158 103.538C154.731 104.818 154.305 106.098 153.878 107.378C153.505 108.658 153.105 109.938 152.678 111.218C152.465 111.912 152.358 112.712 152.358 113.618C152.465 114.418 152.438 115.218 152.278 116.018C152.118 116.818 151.958 117.592 151.798 118.338C151.691 118.765 151.585 119.058 151.478 119.218C151.371 119.378 151.158 119.672 150.838 120.098C150.411 120.098 150.011 119.992 149.638 119.778C149.318 119.565 148.971 119.405 148.598 119.298C147.798 119.032 147.051 118.685 146.358 118.258C145.825 117.512 145.478 116.632 145.318 115.618C145.105 114.072 144.971 112.578 144.918 111.138C144.865 109.645 144.865 108.125 144.918 106.578C144.971 105.565 145.078 104.578 145.238 103.618C145.398 102.605 145.558 101.618 145.718 100.658C145.878 99.5918 146.038 98.5785 146.198 97.6185C146.411 96.6052 146.625 95.5652 146.838 94.4985C146.945 94.1785 147.025 93.8585 147.078 93.5385C147.131 93.2185 147.211 92.8985 147.318 92.5785C147.318 92.4718 147.345 92.3918 147.398 92.3385C147.451 92.2318 147.505 92.1252 147.558 92.0185ZM175.317 76.8185C175.264 76.9252 175.237 77.0585 175.237 77.2185C175.237 77.3252 175.21 77.4318 175.157 77.5385C174.784 78.2852 174.464 79.0585 174.197 79.8585C173.93 80.6052 173.664 81.3518 173.397 82.0985C173.184 82.6852 172.997 83.2452 172.837 83.7785C172.677 84.3118 172.464 84.8718 172.197 85.4585C172.037 85.8318 171.85 86.2052 171.637 86.5785C171.477 86.9518 171.237 87.2718 170.917 87.5385C170.437 87.5385 169.984 87.4318 169.557 87.2185C169.184 87.0052 168.784 86.8452 168.357 86.7385C168.09 86.6318 167.85 86.5518 167.637 86.4985C167.424 86.3918 167.237 86.2052 167.077 85.9385C167.237 85.1385 167.37 84.3385 167.477 83.5385C167.637 82.7385 167.824 81.9385 168.037 81.1385C168.197 80.2318 168.33 79.3518 168.437 78.4985C168.597 77.6452 168.73 76.7652 168.837 75.8585C168.89 75.4318 168.944 75.1652 168.997 75.0585C169.05 74.8985 169.237 74.6052 169.557 74.1785C170.197 74.2318 170.81 74.4452 171.397 74.8185C171.664 74.9785 171.904 75.1385 172.117 75.2985C172.33 75.4585 172.57 75.5918 172.837 75.6985C172.944 75.7518 173.05 75.8052 173.157 75.8585C173.264 75.9118 173.37 75.9385 173.477 75.9385C173.85 75.9918 174.17 76.0985 174.437 76.2585C174.704 76.4185 174.997 76.6052 175.317 76.8185ZM166.117 92.0185C166.49 91.9652 166.757 91.9918 166.917 92.0985C167.13 92.2052 167.37 92.3118 167.637 92.4185C167.85 92.5252 168.064 92.6318 168.277 92.7385C168.49 92.7918 168.73 92.8718 168.997 92.9785C169.157 92.9785 169.317 93.0318 169.477 93.1385C169.637 93.2452 169.797 93.3518 169.957 93.4585C169.957 93.7252 169.957 93.9652 169.957 94.1785C170.01 94.3385 170.01 94.5252 169.957 94.7385C169.904 95.1652 169.85 95.5918 169.797 96.0185C169.797 96.4452 169.744 96.8718 169.637 97.2985C169.53 98.0452 169.45 98.7918 169.397 99.5385C169.397 100.285 169.397 101.032 169.397 101.778C169.29 104.125 169.21 106.445 169.157 108.738C169.157 111.032 169.13 113.352 169.077 115.698C169.077 115.965 169.05 116.205 168.997 116.418C168.997 116.632 169.024 116.845 169.077 117.058C169.077 117.165 169.077 117.272 169.077 117.378C169.13 117.485 169.157 117.592 169.157 117.698C169.637 117.538 170.037 117.325 170.357 117.058C170.677 116.738 170.97 116.392 171.237 116.018C171.45 115.805 171.61 115.592 171.717 115.378C171.877 115.165 172.037 114.925 172.197 114.658C172.464 114.232 172.73 113.832 172.997 113.458C173.264 113.032 173.53 112.605 173.797 112.178C174.544 111.218 175.264 110.152 175.957 108.978C176.65 107.805 177.21 106.632 177.637 105.458C177.744 105.245 177.85 105.058 177.957 104.898C178.384 105.112 178.81 105.298 179.237 105.458C179.717 105.618 180.17 105.805 180.597 106.018C180.704 106.125 180.73 106.232 180.677 106.338C180.624 106.392 180.57 106.472 180.517 106.578C180.25 107.165 179.93 107.778 179.557 108.418C179.237 109.058 178.944 109.672 178.677 110.258C178.41 110.738 178.144 111.218 177.877 111.698C177.61 112.178 177.344 112.685 177.077 113.218C176.65 113.912 176.25 114.605 175.877 115.298C175.504 115.938 175.13 116.605 174.757 117.298C174.437 117.832 174.09 118.338 173.717 118.818C173.344 119.245 172.81 119.592 172.117 119.858C172.01 119.912 171.69 119.992 171.157 120.098C170.464 120.258 169.797 120.232 169.157 120.018C168.41 119.752 167.637 119.485 166.837 119.218C166.09 118.952 165.344 118.685 164.597 118.418C163.424 117.992 162.544 117.378 161.957 116.578C161.37 115.725 160.997 114.738 160.837 113.618C160.677 111.965 160.757 110.285 161.077 108.578C161.29 107.032 161.557 105.538 161.877 104.098C162.197 102.605 162.57 101.112 162.997 99.6185C163.317 98.3918 163.717 97.1918 164.197 96.0185C164.677 94.8452 165.21 93.6718 165.797 92.4985C165.85 92.3918 165.904 92.3118 165.957 92.2585C166.01 92.2052 166.064 92.1252 166.117 92.0185ZM191.969 114.818C191.809 114.872 191.702 114.952 191.649 115.058C191.595 115.165 191.515 115.272 191.409 115.378L189.969 118.258C189.702 118.685 189.409 119.112 189.089 119.538C188.769 119.912 188.369 120.258 187.889 120.578C187.729 120.525 187.569 120.498 187.409 120.498C187.249 120.498 187.089 120.472 186.929 120.418C185.755 119.992 184.582 119.565 183.409 119.138C182.289 118.712 181.142 118.285 179.969 117.858C178.742 117.432 177.969 116.498 177.649 115.058C177.542 114.632 177.462 114.205 177.409 113.778C177.355 113.298 177.302 112.818 177.249 112.338C177.142 110.472 177.222 108.658 177.489 106.898C177.755 105.138 178.155 103.378 178.689 101.618C178.955 100.765 179.275 99.9652 179.649 99.2185C180.075 98.4185 180.502 97.6452 180.929 96.8985C181.142 96.5252 181.355 96.1518 181.569 95.7785C181.782 95.4052 182.022 95.0585 182.289 94.7385C183.462 93.0852 184.902 91.9918 186.609 91.4585C186.822 91.3518 187.009 91.2985 187.169 91.2985C187.382 91.2452 187.595 91.1652 187.809 91.0585C188.982 91.2718 190.075 91.6452 191.089 92.1785C192.155 92.6585 193.222 93.1118 194.289 93.5385C194.609 93.0585 194.769 92.5252 194.769 91.9385C194.769 91.3518 195.035 90.8718 195.569 90.4985C196.155 90.6052 196.689 90.7918 197.169 91.0585C197.702 91.3252 198.262 91.5385 198.849 91.6985C198.955 91.7518 199.035 91.8318 199.089 91.9385C199.195 91.9918 199.302 92.0718 199.409 92.1785C199.462 92.4452 199.489 92.8718 199.489 93.4585C199.489 94.3118 199.489 95.1652 199.489 96.0185C199.489 96.8718 199.435 97.7518 199.329 98.6585C199.222 99.7252 199.169 100.765 199.169 101.778C199.169 102.792 199.142 103.832 199.089 104.898C199.089 106.765 199.089 108.632 199.089 110.498C199.089 112.312 199.115 114.152 199.169 116.018C199.169 116.232 199.142 116.445 199.089 116.658C199.089 116.872 199.195 117.085 199.409 117.298C199.675 117.298 199.862 117.245 199.969 117.138C200.075 116.978 200.182 116.845 200.289 116.738C200.555 116.472 200.822 116.205 201.089 115.938C201.355 115.672 201.595 115.378 201.809 115.058C202.075 114.792 202.289 114.498 202.449 114.178C202.609 113.858 202.795 113.538 203.009 113.218L205.169 109.378C205.435 108.952 205.729 108.365 206.049 107.618C206.422 106.818 206.635 106.152 206.689 105.618C206.689 105.352 206.875 105.112 207.249 104.898C207.729 105.005 208.182 105.192 208.609 105.458C209.035 105.725 209.515 105.885 210.049 105.938C210.155 106.098 210.209 106.232 210.209 106.338C210.262 106.445 210.315 106.552 210.369 106.658C210.155 106.925 209.969 107.165 209.809 107.378C209.649 107.592 209.515 107.832 209.409 108.098C209.249 108.365 209.115 108.632 209.009 108.898C208.955 109.112 208.875 109.352 208.769 109.618C208.182 110.685 207.542 111.912 206.849 113.298C206.209 114.685 205.595 115.912 205.009 116.978C204.849 117.352 204.689 117.725 204.529 118.098C204.369 118.472 204.182 118.845 203.969 119.218C203.862 119.485 203.729 119.752 203.569 120.018C203.409 120.232 203.222 120.472 203.009 120.738C202.369 121.645 201.515 121.912 200.449 121.538C199.755 121.272 199.062 121.005 198.369 120.738C197.675 120.525 196.982 120.285 196.289 120.018C196.022 119.912 195.729 119.805 195.409 119.698C195.142 119.592 194.875 119.485 194.609 119.378C193.862 119.165 193.302 118.658 192.929 117.858C192.662 117.485 192.475 117.112 192.369 116.738C192.262 116.312 192.155 115.885 192.049 115.458C192.049 115.352 192.022 115.245 191.969 115.138C191.969 115.032 191.969 114.925 191.969 114.818ZM191.649 93.9385C191.115 94.2052 190.609 94.4985 190.129 94.8185C189.702 95.0852 189.329 95.4852 189.009 96.0185C188.849 96.3385 188.662 96.6585 188.449 96.9785C188.289 97.2452 188.129 97.5652 187.969 97.9385C186.582 100.872 185.809 103.965 185.649 107.218C185.595 108.125 185.569 109.058 185.569 110.018C185.622 110.925 185.649 111.832 185.649 112.738C185.649 113.005 185.809 113.112 186.129 113.058C186.395 112.632 186.662 112.178 186.929 111.698C187.249 111.218 187.542 110.712 187.809 110.178C188.235 109.272 188.662 108.392 189.089 107.538C189.569 106.685 190.022 105.805 190.449 104.898C190.769 104.098 191.089 103.325 191.409 102.578C191.729 101.778 192.102 101.005 192.529 100.258C192.635 99.9918 192.742 99.7252 192.849 99.4585C192.955 99.1385 193.089 98.8185 193.249 98.4985C192.929 98.2852 192.689 98.1518 192.529 98.0985C192.635 97.2985 192.662 96.5518 192.609 95.8585C192.555 95.1652 192.235 94.5252 191.649 93.9385Z" fill="white"/>
  <path d="M64.12 127.778C64.7067 127.885 65.2133 128.045 65.64 128.258C66.0667 128.472 66.4933 128.712 66.92 128.978C67.4533 129.298 67.9867 129.645 68.52 130.018C69.0533 130.338 69.6133 130.658 70.2 130.978C70.84 131.352 71.2933 131.645 71.56 131.858C71.8267 132.072 72.0133 132.312 72.12 132.578C72.2267 132.845 72.28 133.192 72.28 133.618C72.28 134.045 72.36 134.605 72.52 135.298C72.7333 136.205 72.84 137.085 72.84 137.938C72.8933 138.738 72.92 139.592 72.92 140.498C72.92 141.245 72.8933 141.992 72.84 142.738C72.84 143.485 72.8133 144.232 72.76 144.978C72.7067 145.565 72.6533 146.125 72.6 146.658C72.6 147.192 72.5467 147.752 72.44 148.338C72.3333 148.978 72.2267 149.618 72.12 150.258C72.0667 150.898 71.9867 151.565 71.88 152.258C71.72 153.165 71.5867 154.072 71.48 154.978C71.3733 155.885 71.24 156.792 71.08 157.698C70.92 158.445 70.7867 159.218 70.68 160.018C70.5733 160.765 70.4667 161.512 70.36 162.258C70.2533 162.792 70.12 163.512 69.96 164.418C69.8533 165.325 69.6933 166.285 69.48 167.298C69.32 168.258 69.16 169.218 69 170.178C68.84 171.085 68.7333 171.805 68.68 172.338L68.2 175.458C68.0933 176.152 68.0133 176.978 67.96 177.938C67.96 178.952 67.6933 179.672 67.16 180.098C67.0533 180.098 67.0267 179.992 67.08 179.778C67.1867 179.565 67.1867 179.405 67.08 179.298C66.92 179.192 66.7867 179.165 66.68 179.218C66.5733 179.272 66.4667 179.325 66.36 179.378C66.3067 179.485 66.2267 179.565 66.12 179.618C66.0133 179.725 65.88 179.725 65.72 179.618C64.76 179.245 63.8267 178.818 62.92 178.338C62.6 177.752 62.3333 177.165 62.12 176.578C61.9067 175.992 61.6667 175.405 61.4 174.818C61.4 174.392 61.4 173.992 61.4 173.618C61.4 173.192 61.4267 172.765 61.48 172.338C61.5333 171.752 61.5867 171.165 61.64 170.578C61.7467 169.938 61.8533 169.325 61.96 168.738C62.0667 168.205 62.2 167.512 62.36 166.658C62.52 165.752 62.68 164.845 62.84 163.938C63.0533 162.978 63.2133 162.072 63.32 161.218C63.48 160.312 63.6133 159.618 63.72 159.138C63.88 158.338 64.0133 157.565 64.12 156.818C64.28 156.018 64.4133 155.218 64.52 154.418C64.7333 153.298 64.92 152.205 65.08 151.138C65.2933 150.018 65.48 148.898 65.64 147.778C65.8 146.978 65.9333 146.178 66.04 145.378C66.2 144.578 66.3333 143.778 66.44 142.978C66.6 141.912 66.7333 140.845 66.84 139.778C66.9467 138.712 67 137.645 67 136.578C67.0533 136.045 67.0533 135.538 67 135.058C67 134.525 66.9733 133.992 66.92 133.458C66.92 133.352 66.8933 133.245 66.84 133.138C66.7867 132.978 66.76 132.845 66.76 132.738C66.44 132.578 66.1467 132.578 65.88 132.738C64.76 133.325 63.72 134.045 62.76 134.898C61.9067 135.698 61.08 136.552 60.28 137.458C59.5333 138.312 58.7867 139.192 58.04 140.098C57.6133 140.525 57.2133 140.978 56.84 141.458C56.4667 141.885 56.12 142.365 55.8 142.898C55 144.125 54.6 145.458 54.6 146.898C54.6533 147.272 54.68 147.645 54.68 148.018C54.68 148.338 54.68 148.632 54.68 148.898C54.8933 149.272 55.1333 149.538 55.4 149.698C55.6667 149.805 55.96 149.912 56.28 150.018C56.12 150.125 56.0133 150.205 55.96 150.258C55.9067 150.312 55.8267 150.365 55.72 150.418C55.2933 150.418 54.9733 150.392 54.76 150.338C54.4933 150.232 54.2 150.125 53.88 150.018C53.6133 149.912 53.3467 149.805 53.08 149.698C52.5467 149.485 52.1467 149.112 51.88 148.578C51.3467 147.298 51.0533 146.045 51 144.818C50.9467 143.538 51.2133 142.258 51.8 140.978C52.0667 140.498 52.3067 140.018 52.52 139.538C52.7867 139.058 53.08 138.605 53.4 138.178C54.1467 137.112 54.8667 136.072 55.56 135.058C56.3067 134.045 57.08 133.005 57.88 131.938C58.4667 131.192 59.1067 130.525 59.8 129.938C60.4933 129.298 61.2933 128.792 62.2 128.418C62.52 128.258 62.84 128.152 63.16 128.098C63.5333 127.992 63.8533 127.885 64.12 127.778ZM88.8631 174.658C88.1165 174.658 87.4498 174.525 86.8631 174.258C86.3298 174.045 85.7965 173.752 85.2631 173.378C84.7831 173.058 84.3031 172.792 83.8231 172.578C83.3431 172.312 82.8365 172.045 82.3031 171.778C82.0898 171.885 81.9565 172.045 81.9031 172.258C81.8498 172.418 81.7965 172.605 81.7431 172.818C81.7965 174.685 81.7165 176.445 81.5031 178.098C81.2898 179.805 81.0765 181.245 80.8631 182.418C80.7031 183.645 80.5965 184.525 80.5431 185.058C80.4898 185.645 80.6231 185.752 80.9431 185.378C80.7831 185.912 80.7298 186.338 80.7831 186.658C80.8898 186.978 80.8898 187.432 80.7831 188.018C80.7831 188.178 80.7565 188.338 80.7031 188.498C80.6498 188.658 80.5698 188.845 80.4631 189.058C80.3031 189.005 80.0098 188.952 79.5831 188.898C79.1565 188.898 78.7031 188.872 78.2231 188.818C77.7431 188.765 77.2898 188.712 76.8631 188.658C76.4365 188.658 76.1431 188.632 75.9831 188.578C75.9298 188.578 75.8231 188.498 75.6631 188.338L75.4231 188.098C75.3165 187.458 75.2098 186.792 75.1031 186.098C74.9965 185.458 74.8898 184.818 74.7831 184.178C74.7298 183.912 74.7031 183.618 74.7031 183.298C74.7031 182.978 74.7031 182.658 74.7031 182.338L74.7031 176.338C74.7031 175.912 74.7298 175.512 74.7831 175.138C74.8365 174.765 74.8631 174.365 74.8631 173.938C74.9165 173.672 74.9431 173.432 74.9431 173.218C74.9431 172.952 74.9431 172.685 74.9431 172.418C74.9431 171.352 75.0231 170.312 75.1831 169.298C75.2898 168.285 75.3965 167.245 75.5031 166.178C75.7698 164.152 76.0898 162.178 76.4631 160.258C76.8365 158.285 77.1831 156.312 77.5031 154.338C77.7165 153.112 77.9565 151.938 78.2231 150.818C78.4898 149.645 78.7565 148.445 79.0231 147.218C79.0765 147.058 79.1298 146.925 79.1831 146.818C79.2365 146.658 79.3165 146.498 79.4231 146.338C79.5298 146.392 79.6098 146.418 79.6631 146.418C79.7165 146.418 79.7965 146.445 79.9031 146.498C80.3298 146.712 80.7565 146.925 81.1831 147.138C81.6098 147.352 82.0365 147.565 82.4631 147.778C82.4631 147.778 82.5165 147.885 82.6231 148.098C82.7298 148.472 82.7565 148.845 82.7031 149.218C82.7031 149.538 82.6765 149.912 82.6231 150.338C82.5165 150.765 82.4365 151.192 82.3831 151.618C82.3298 152.045 82.2498 152.472 82.1431 152.898C82.1431 153.005 82.1165 153.112 82.0631 153.218C82.0631 153.272 82.0631 153.352 82.0631 153.458C81.9565 154.205 81.8765 154.925 81.8231 155.618C81.8231 156.258 81.7698 156.925 81.6631 157.618C81.5565 158.365 81.4765 159.085 81.4231 159.778C81.3698 160.418 81.2898 161.112 81.1831 161.858L81.1831 162.418C81.4498 162.098 81.6098 161.778 81.6631 161.458C81.7698 161.085 81.8765 160.712 81.9831 160.338C82.4631 158.632 83.1031 156.925 83.9031 155.218C84.1698 154.632 84.4365 154.072 84.7031 153.538C85.0231 152.952 85.3165 152.365 85.5831 151.778C85.9031 151.192 86.2498 150.658 86.6231 150.178C86.9965 149.645 87.3965 149.138 87.8231 148.658C88.0898 148.392 88.3565 148.152 88.6231 147.938C88.9431 147.725 89.2098 147.538 89.4231 147.378C89.7965 147.218 90.0898 147.192 90.3031 147.298C90.5165 147.352 90.7298 147.432 90.9431 147.538C91.6898 147.912 92.4631 148.338 93.2631 148.818C93.7965 149.138 94.2231 149.618 94.5431 150.258C95.1831 151.858 95.3698 153.565 95.1031 155.378C95.1031 155.592 95.0765 155.805 95.0231 156.018C94.9698 156.178 94.9431 156.365 94.9431 156.578C94.9431 157.645 94.8365 158.685 94.6231 159.698C94.4631 160.712 94.3298 161.752 94.2231 162.818C94.1165 163.405 94.0098 164.018 93.9031 164.658C93.8498 165.245 93.7698 165.832 93.6631 166.418C93.5565 167.165 93.4498 167.885 93.3431 168.578C93.2365 169.272 93.0498 169.938 92.7831 170.578C92.4631 171.645 91.9831 172.525 91.3431 173.218C90.7031 173.912 89.8765 174.392 88.8631 174.658ZM90.8631 150.738C90.7031 150.738 90.5965 150.765 90.5431 150.818C90.1165 151.245 89.6898 151.672 89.2631 152.098C88.8365 152.525 88.4898 153.032 88.2231 153.618C87.6365 154.685 87.0765 155.752 86.5431 156.818C86.0631 157.885 85.6365 159.005 85.2631 160.178C84.7831 161.512 84.3565 162.845 83.9831 164.178C83.6631 165.512 83.3165 166.872 82.9431 168.258L82.9431 168.738C83.2098 168.845 83.4231 168.952 83.5831 169.058C83.7965 169.112 84.0098 169.192 84.2231 169.298C84.4365 169.352 84.7031 169.485 85.0231 169.698C86.2498 169.112 87.0765 168.285 87.5031 167.218C87.7698 166.632 88.0098 165.912 88.2231 165.058C88.4365 164.312 88.6231 163.565 88.7831 162.818C88.9431 162.018 89.1298 161.245 89.3431 160.498C89.7165 159.112 90.0098 157.752 90.2231 156.418C90.4898 155.032 90.7031 153.645 90.8631 152.258C90.9165 151.992 90.9431 151.752 90.9431 151.538C90.9965 151.272 90.9698 151.005 90.8631 150.738ZM98.1687 159.698C98.3287 159.698 98.4887 159.698 98.6487 159.698C98.7554 159.645 98.8887 159.592 99.0487 159.538C99.4221 159.752 99.7687 159.965 100.089 160.178C100.409 160.392 100.782 160.605 101.209 160.818C101.209 161.085 101.235 161.565 101.289 162.258C101.395 162.898 101.502 163.592 101.609 164.338C101.715 165.085 101.822 165.805 101.929 166.498C102.035 167.138 102.142 167.592 102.249 167.858C102.355 168.445 102.435 169.005 102.489 169.538C102.595 170.072 102.782 170.578 103.049 171.058C103.262 171.165 103.529 171.165 103.849 171.058C105.022 170.525 105.742 169.592 106.009 168.258C106.115 167.565 106.222 166.898 106.329 166.258C106.489 165.565 106.462 164.872 106.249 164.178C106.195 164.125 106.169 164.018 106.169 163.858C106.222 163.005 106.142 162.178 105.929 161.378C105.769 160.578 105.609 159.752 105.449 158.898C105.235 157.992 105.129 157.058 105.129 156.098C105.129 155.138 105.155 154.178 105.209 153.218C105.475 152.152 105.822 151.138 106.249 150.178C106.729 149.218 107.342 148.338 108.089 147.538C109.262 146.365 110.595 145.698 112.089 145.538C112.675 145.592 113.209 145.725 113.689 145.938C114.169 146.152 114.622 146.392 115.049 146.658C115.315 146.872 115.609 147.085 115.929 147.298C116.249 147.458 116.569 147.645 116.889 147.858C117.102 147.965 117.289 148.125 117.449 148.338C117.662 148.498 117.849 148.658 118.009 148.818C118.382 149.458 118.462 150.045 118.249 150.578C118.142 150.792 118.035 151.005 117.929 151.218C117.875 151.432 117.742 151.645 117.529 151.858C117.262 151.698 116.969 151.538 116.649 151.378C116.329 151.218 116.035 151.058 115.769 150.898C115.662 150.792 115.582 150.685 115.529 150.578C115.422 150.312 115.395 150.072 115.449 149.858C115.502 149.592 115.529 149.325 115.529 149.058C115.529 149.005 115.475 148.818 115.369 148.498C114.729 148.765 114.195 149.112 113.769 149.538C113.342 149.965 112.942 150.418 112.569 150.898C112.142 151.378 111.822 151.912 111.609 152.498C111.449 153.085 111.262 153.672 111.049 154.258C110.622 155.858 110.569 157.405 110.889 158.898C110.942 159.058 110.969 159.272 110.969 159.538C110.969 160.178 111.049 160.792 111.209 161.378C111.369 161.965 111.529 162.552 111.689 163.138C111.902 163.832 112.062 164.525 112.169 165.218C112.329 165.912 112.462 166.605 112.569 167.298C112.622 167.405 112.649 167.538 112.649 167.698C112.649 167.805 112.675 167.938 112.729 168.098C112.995 168.098 113.155 168.072 113.209 168.018C114.115 167.112 114.995 166.178 115.849 165.218C116.702 164.205 117.475 163.138 118.169 162.018C118.329 161.752 118.515 161.432 118.729 161.058C118.995 160.685 119.182 160.365 119.289 160.098C119.609 159.512 119.982 159.112 120.409 158.898C120.622 159.005 120.809 159.138 120.969 159.298C121.182 159.405 121.369 159.538 121.529 159.698C121.742 159.805 121.902 159.938 122.009 160.098C122.169 160.205 122.355 160.312 122.569 160.418C122.729 160.525 122.915 160.632 123.129 160.738C123.342 160.792 123.502 160.978 123.609 161.298C123.022 162.045 122.355 162.898 121.609 163.858C120.915 164.765 120.249 165.592 119.609 166.338C119.022 167.032 118.435 167.698 117.849 168.338C117.262 168.925 116.649 169.512 116.009 170.098C115.475 170.578 114.915 171.058 114.329 171.538C113.795 171.965 113.235 172.365 112.649 172.738C112.382 172.898 112.115 173.058 111.849 173.218C111.635 173.378 111.395 173.592 111.129 173.858C110.809 174.178 110.542 174.392 110.329 174.498C108.622 175.725 106.889 175.885 105.129 174.978C104.275 174.552 103.449 174.125 102.649 173.698C101.849 173.218 101.049 172.765 100.249 172.338C99.0754 171.645 98.4887 170.658 98.4887 169.378C98.4887 168.898 98.4621 168.418 98.4087 167.938C98.3021 167.458 98.2487 166.978 98.2487 166.498C98.2487 166.232 98.2221 165.778 98.1687 165.138C98.0621 164.498 97.9821 163.832 97.9287 163.138C97.8754 162.392 97.8754 161.698 97.9287 161.058C97.9287 160.418 98.0087 159.965 98.1687 159.698ZM136.386 145.378C136.653 145.378 136.786 145.378 136.786 145.378C136.893 145.432 137 145.458 137.106 145.458C137.266 145.458 137.4 145.512 137.506 145.618C137.933 145.885 138.626 146.178 139.586 146.498C140.546 146.765 141.266 146.978 141.746 147.138C141.853 147.885 141.88 148.578 141.826 149.218C141.773 149.805 141.72 150.418 141.666 151.058C141.56 151.592 141.506 151.992 141.506 152.258C141.4 153.165 141.32 154.098 141.266 155.058C141.266 155.965 141.213 156.872 141.106 157.778C141 158.632 140.946 159.485 140.946 160.338C140.946 161.138 140.946 161.965 140.946 162.818C140.893 163.458 140.866 164.098 140.866 164.738C140.92 165.378 140.893 166.018 140.786 166.658C140.733 166.978 140.68 167.192 140.626 167.298C140.626 167.405 140.6 167.485 140.546 167.538C140.546 167.592 140.546 167.672 140.546 167.778C140.546 167.885 140.546 168.098 140.546 168.418C140.546 168.525 140.546 168.632 140.546 168.738C140.6 168.792 140.626 168.872 140.626 168.978C140.893 169.032 141.08 169.005 141.186 168.898C141.293 168.738 141.4 168.578 141.506 168.418C141.986 167.832 142.413 167.298 142.786 166.818C143.16 166.338 143.48 165.858 143.746 165.378C144.066 164.898 144.36 164.392 144.626 163.858C144.893 163.325 145.16 162.685 145.426 161.938C145.586 161.512 145.746 161.112 145.906 160.738C146.12 160.365 146.306 159.965 146.466 159.538C146.52 159.325 146.653 159.112 146.866 158.898C147.293 159.005 147.693 159.165 148.066 159.378C148.44 159.538 148.92 159.858 149.506 160.338C149.506 160.498 149.453 160.632 149.346 160.738C148.653 161.645 148.093 162.712 147.666 163.938C147.453 164.418 147.186 165.005 146.866 165.698C146.546 166.392 146.28 166.978 146.066 167.458C145.906 167.885 145.693 168.312 145.426 168.738C145.053 169.325 144.68 169.938 144.306 170.578C143.986 171.165 143.613 171.752 143.186 172.338C142.973 172.605 142.733 172.872 142.466 173.138C142.253 173.352 142.04 173.592 141.826 173.858C141.4 173.965 141 173.992 140.626 173.938C140.306 173.885 139.96 173.778 139.586 173.618C138.946 173.352 138.306 173.085 137.666 172.818C137.026 172.552 136.413 172.285 135.826 172.018C134.973 171.592 134.28 171.112 133.746 170.578C133.32 169.672 133.106 168.765 133.106 167.858C133.16 166.952 133.16 166.018 133.106 165.058L132.546 166.178C132.386 166.658 132.2 167.138 131.986 167.618C131.826 168.098 131.666 168.578 131.506 169.058C131.186 169.858 130.786 170.578 130.306 171.218C129.986 171.645 129.666 172.045 129.346 172.418C129.08 172.792 128.786 173.192 128.466 173.618C128.093 174.098 127.746 174.365 127.426 174.418C127.16 174.525 126.76 174.472 126.226 174.258C125.8 174.098 125.373 173.938 124.946 173.778C124.52 173.618 124.093 173.458 123.666 173.298C123.453 173.192 123.266 173.112 123.106 173.058C122.946 172.952 122.76 172.845 122.546 172.738C121.746 172.472 121.133 172.045 120.706 171.458C120.333 170.818 120.093 170.098 119.986 169.298C119.773 168.072 119.666 166.898 119.666 165.778C119.666 164.605 119.666 163.432 119.666 162.258C119.72 161.298 119.773 160.338 119.826 159.378C119.88 158.418 119.96 157.485 120.066 156.578C120.066 156.152 120.093 155.778 120.146 155.458C120.2 155.085 120.28 154.685 120.386 154.258L121.586 148.018C121.693 147.325 121.906 146.792 122.226 146.418C122.546 146.472 122.92 146.552 123.346 146.658C123.773 146.712 124.226 146.792 124.706 146.898C125.186 147.005 125.613 147.112 125.986 147.218C126.413 147.325 126.733 147.432 126.946 147.538C127.106 147.805 127.186 148.045 127.186 148.258C127.186 148.418 127.16 148.605 127.106 148.818C127.053 149.138 127 149.458 126.946 149.778C126.946 150.098 126.92 150.392 126.866 150.658C126.866 150.978 126.84 151.325 126.786 151.698C126.786 152.018 126.76 152.338 126.706 152.658C126.653 152.925 126.626 153.165 126.626 153.378C126.626 153.538 126.626 153.752 126.626 154.018C126.573 154.552 126.546 155.085 126.546 155.618C126.546 156.152 126.493 156.685 126.386 157.218C126.28 157.485 126.226 157.778 126.226 158.098C126.28 158.365 126.306 158.632 126.306 158.898C126.306 159.858 126.306 160.818 126.306 161.778C126.306 162.685 126.253 163.618 126.146 164.578C126.093 164.845 126.093 165.138 126.146 165.458C126.2 165.778 126.226 166.098 126.226 166.418L126.226 169.618C126.226 169.885 126.253 169.912 126.306 169.698C126.36 169.485 126.386 169.512 126.386 169.778C126.386 169.885 126.413 169.965 126.466 170.018C126.52 170.018 126.573 170.072 126.626 170.178C126.733 170.125 126.813 170.098 126.866 170.098C126.92 170.098 126.973 170.072 127.026 170.018C127.24 169.805 127.346 169.698 127.346 169.698C127.346 169.645 127.346 169.618 127.346 169.618C127.346 169.565 127.453 169.432 127.666 169.218C127.826 169.005 127.986 168.818 128.146 168.658C128.306 168.445 128.44 168.205 128.546 167.938C128.813 167.458 129.053 166.978 129.266 166.498C129.48 166.018 129.693 165.538 129.906 165.058C130.493 163.672 131.053 162.312 131.586 160.978C132.173 159.592 132.76 158.205 133.346 156.818C133.773 155.698 134.146 154.552 134.466 153.378C134.84 152.205 135.133 151.005 135.346 149.778C135.453 149.192 135.56 148.632 135.666 148.098C135.773 147.512 135.906 146.925 136.066 146.338C136.066 146.178 136.093 146.018 136.146 145.858C136.253 145.698 136.333 145.538 136.386 145.378ZM159.499 157.938C159.233 158.045 159.073 158.178 159.019 158.338C159.019 158.498 158.966 158.658 158.859 158.818C158.699 159.192 158.566 159.565 158.459 159.938C158.353 160.312 158.219 160.685 158.059 161.058C157.899 161.485 157.739 161.912 157.579 162.338C157.419 162.712 157.233 163.085 157.019 163.458C156.433 164.578 155.926 165.698 155.499 166.818C155.073 167.938 154.646 169.085 154.219 170.258C153.953 170.898 153.686 171.538 153.419 172.178C153.206 172.818 152.966 173.458 152.699 174.098C152.539 174.632 152.219 175.005 151.739 175.218C151.206 175.005 150.646 174.792 150.059 174.578C149.526 174.418 148.966 174.205 148.379 173.938C147.793 173.618 147.313 173.138 146.939 172.498C146.673 171.272 146.486 170.018 146.379 168.738C146.273 167.405 146.273 166.098 146.379 164.818C146.433 163.592 146.513 162.392 146.619 161.218C146.673 160.045 146.833 158.845 147.099 157.618C147.259 156.658 147.446 155.725 147.659 154.818C147.873 153.858 148.059 152.898 148.219 151.938C148.326 151.405 148.406 150.898 148.459 150.418C148.513 149.938 148.593 149.432 148.699 148.898C148.806 148.525 148.859 148.178 148.859 147.858C148.913 147.538 148.993 147.192 149.099 146.818C149.153 146.712 149.206 146.632 149.259 146.578C149.313 146.525 149.366 146.445 149.419 146.338C149.739 146.232 150.086 146.258 150.459 146.418C150.993 146.685 151.473 146.978 151.899 147.298C152.379 147.565 152.886 147.832 153.419 148.098C153.526 148.205 153.633 148.338 153.739 148.498C153.899 148.605 154.059 148.738 154.219 148.898C154.219 149.112 154.219 149.325 154.219 149.538C154.273 149.698 154.273 149.885 154.219 150.098C154.219 150.685 154.219 151.298 154.219 151.938C154.219 152.525 154.193 153.138 154.139 153.778C154.086 154.525 154.033 155.272 153.979 156.018C153.926 156.712 153.846 157.432 153.739 158.178C153.686 158.445 153.659 158.738 153.659 159.058C153.659 159.325 153.633 159.592 153.579 159.858C153.579 160.445 153.553 161.032 153.499 161.618C153.499 162.205 153.499 162.818 153.499 163.458C153.713 163.245 153.873 163.032 153.979 162.818C154.406 162.072 154.779 161.325 155.099 160.578C155.419 159.832 155.713 159.085 155.979 158.338C156.086 158.072 156.193 157.805 156.299 157.538C156.459 157.218 156.593 156.925 156.699 156.658C157.233 155.592 157.713 154.525 158.139 153.458C158.619 152.338 159.073 151.245 159.499 150.178C159.606 149.858 159.739 149.565 159.899 149.298C160.059 148.978 160.219 148.685 160.379 148.418C160.539 148.152 160.673 147.885 160.779 147.618C160.939 147.298 161.046 146.978 161.099 146.658C161.153 146.605 161.179 146.552 161.179 146.498C161.233 146.445 161.286 146.392 161.339 146.338C161.553 146.338 161.659 146.338 161.659 146.338C162.246 146.605 162.833 146.872 163.419 147.138C164.006 147.352 164.539 147.672 165.019 148.098C165.446 148.525 165.659 149.085 165.659 149.778C165.659 150.312 165.633 150.845 165.579 151.378C165.579 151.858 165.526 152.338 165.419 152.818C165.366 152.925 165.339 153.085 165.339 153.298C165.233 154.045 165.153 154.818 165.099 155.618C165.099 156.365 165.046 157.112 164.939 157.858C164.886 158.392 164.833 158.925 164.779 159.458C164.779 159.938 164.753 160.418 164.699 160.898L164.699 162.098C164.859 161.778 164.993 161.512 165.099 161.298C165.206 161.085 165.313 160.872 165.419 160.658C165.846 159.592 166.299 158.578 166.779 157.618C167.313 156.605 167.873 155.592 168.459 154.578C168.886 153.725 169.313 152.872 169.739 152.018C170.219 151.112 170.673 150.205 171.099 149.298C171.366 148.765 171.606 148.258 171.819 147.778C172.033 147.245 172.273 146.738 172.539 146.258C172.646 146.152 172.753 146.072 172.859 146.018C173.393 146.125 173.873 146.338 174.299 146.658C174.939 147.085 175.579 147.405 176.219 147.618C177.233 147.992 177.793 148.765 177.899 149.938C178.006 151.165 178.086 152.392 178.139 153.618C178.246 154.845 178.379 156.072 178.539 157.298C178.646 158.045 178.699 158.792 178.699 159.538C178.699 160.232 178.753 160.952 178.859 161.698C179.019 163.885 179.099 166.018 179.099 168.098L179.099 168.818C179.259 168.925 179.366 168.952 179.419 168.898C179.473 168.845 179.553 168.792 179.659 168.738C180.673 167.725 181.713 166.472 182.779 164.978C183.899 163.432 184.806 162.045 185.499 160.818C185.606 160.552 185.739 160.312 185.899 160.098C186.059 159.885 186.219 159.645 186.379 159.378C186.806 159.165 187.153 159.005 187.419 158.898C187.686 159.112 187.953 159.298 188.219 159.458C188.539 159.618 188.833 159.778 189.099 159.938C189.153 160.152 189.179 160.338 189.179 160.498C189.179 160.658 189.206 160.845 189.259 161.058C188.886 161.805 188.379 162.738 187.739 163.858C187.099 164.925 186.566 165.832 186.139 166.578C186.033 166.845 185.899 167.085 185.739 167.298C185.633 167.512 185.473 167.752 185.259 168.018C184.673 168.765 184.059 169.538 183.419 170.338C182.833 171.138 182.219 171.912 181.579 172.658C181.473 172.872 181.313 173.058 181.099 173.218C180.939 173.325 180.753 173.458 180.539 173.618C180.273 173.618 180.006 173.618 179.739 173.618C179.473 173.618 179.206 173.645 178.939 173.698C178.033 173.272 177.126 172.845 176.219 172.418C175.366 171.992 174.486 171.565 173.579 171.138C172.406 170.552 171.526 169.592 170.939 168.258C170.726 167.778 170.539 167.298 170.379 166.818C170.273 166.285 170.219 165.725 170.219 165.138L170.219 161.778C170.219 161.618 170.193 161.458 170.139 161.298C170.139 161.085 170.139 160.818 170.139 160.498C169.873 161.138 169.633 161.725 169.419 162.258C169.259 162.738 169.099 163.218 168.939 163.698C168.406 165.138 167.873 166.552 167.339 167.938C166.806 169.325 166.166 170.685 165.419 172.018C165.206 172.392 164.993 172.738 164.779 173.058C164.726 173.165 164.673 173.245 164.619 173.298C164.566 173.352 164.513 173.432 164.459 173.538C164.033 173.698 163.579 173.672 163.099 173.458C162.193 173.032 161.259 172.605 160.299 172.178C159.553 171.858 158.806 171.378 158.059 170.738C157.899 170.152 157.819 169.592 157.819 169.058C157.873 168.472 157.953 167.885 158.059 167.298C158.166 166.658 158.246 166.018 158.299 165.378C158.353 164.685 158.433 164.018 158.539 163.378C158.646 162.685 158.753 162.018 158.859 161.378C159.019 160.738 159.179 160.098 159.339 159.458C159.393 159.192 159.419 158.952 159.419 158.738C159.473 158.472 159.473 158.205 159.419 157.938C159.686 157.885 159.739 157.698 159.579 157.378C159.526 157.538 159.499 157.725 159.499 157.938Z" fill="white"/>
  <path d="M34.9786 24.8587L36.6683 24.1405L38.7807 29.1102L44.8271 26.54L42.7147 21.5704L44.4044 20.8521L49.3263 32.4315L47.6366 33.1497L45.4327 27.9647L39.3862 30.5348L41.5902 35.7198L39.9005 36.4381L34.9786 24.8587Z" fill="#7D9B6B"/>
  <path d="M55.0144 16.9155L56.6918 16.3695L65.3613 26.7795L63.5812 27.3589L61.4137 24.7706L56.1248 26.492L55.9303 29.8491L54.133 30.434L55.0144 16.9155ZM60.4609 23.4717L56.4826 18.5766L56.1477 24.8756L60.4609 23.4717Z" fill="#7D9B6B"/>
  <path d="M65.4873 13.837L67.1851 13.4299L75.6284 21.1603L73.4165 11.9358L75.2194 11.5035L78.1531 23.7386L76.4378 24.15L67.9945 16.4196L70.2064 25.6441L68.421 26.0722L65.4873 13.837Z" fill="#7D9B6B"/>
  <path d="M80.7219 10.4975L84.7244 9.87883C86.0645 9.67169 87.2652 9.74108 88.3265 10.087C89.3878 10.4329 90.2508 11.0281 90.9156 11.8724C91.5923 12.715 92.0278 13.7648 92.2221 15.0218C92.5411 17.0853 92.1842 18.7433 91.1514 19.9958C90.1286 21.2346 88.544 22.0198 86.3975 22.3517L82.644 22.9319L80.7219 10.4975ZM86.1459 20.8424C87.8062 20.5857 88.9882 19.9841 89.6918 19.0375C90.3955 18.0909 90.6282 16.8467 90.3898 15.305C90.1699 13.8819 89.5866 12.8186 88.64 12.1149C87.7052 11.4094 86.4848 11.1731 84.9787 11.4059L82.7729 11.7469L84.2248 21.1393L86.1459 20.8424Z" fill="#7D9B6B"/>
  <path d="M114.073 20.3689C112.777 20.3929 111.62 20.1442 110.602 19.623C109.585 19.1017 108.785 18.3544 108.203 17.381C107.62 16.3956 107.317 15.249 107.293 13.9413C107.269 12.6335 107.529 11.4765 108.075 10.4702C108.62 9.46392 109.392 8.68151 110.39 8.12294C111.387 7.56438 112.534 7.2731 113.83 7.24912C115.558 7.21713 117.012 7.6283 118.192 8.4826L118.224 10.2463C117.163 9.34178 115.763 8.90562 114.023 8.93783C113.051 8.95582 112.191 9.16978 111.443 9.5797C110.706 9.9894 110.135 10.5701 109.729 11.3217C109.322 12.0614 109.128 12.9231 109.146 13.9069C109.165 14.8908 109.391 15.7507 109.824 16.4868C110.27 17.2227 110.868 17.7817 111.62 18.1639C112.383 18.5458 113.244 18.7279 114.204 18.7102C115.092 18.6937 115.882 18.5651 116.573 18.3242C117.277 18.0712 117.924 17.6811 118.514 17.1541L118.547 18.9358C117.484 19.8556 115.993 20.3333 114.073 20.3689Z" fill="#7D9B6B"/>
  <path d="M123.054 7.68255L128.104 7.94991C129.447 8.02096 130.46 8.39906 131.145 9.08421C131.829 9.76936 132.139 10.7351 132.073 11.9813C132.024 12.904 131.737 13.6759 131.211 14.297C130.686 14.9061 129.968 15.3007 129.058 15.4808L131.556 20.7322L129.65 20.6314L127.235 15.5285L124.484 15.383L124.222 20.344L122.388 20.247L123.054 7.68255ZM127.478 13.9913C128.281 14.0338 128.926 13.8816 129.413 13.5349C129.913 13.1768 130.182 12.6263 130.221 11.8833C130.265 11.0685 130.062 10.4749 129.613 10.1027C129.176 9.73104 128.544 9.52334 127.717 9.47957L124.805 9.32543L124.566 13.8371L127.478 13.9913Z" fill="#7D9B6B"/>
  <path d="M140.168 9.14884L141.918 9.3675L145.342 22.475L143.484 22.2429L142.622 18.9789L137.103 18.2894L135.5 21.2456L133.625 21.0113L140.168 9.14884ZM142.312 17.3982L140.791 11.2765L137.811 16.836L142.312 17.3982Z" fill="#7D9B6B"/>
  <path d="M150.895 10.8255L159.034 12.4389L158.733 13.9573L152.395 12.7009L151.614 16.6383L156.346 17.5763L156.063 19.0064L151.331 18.0685L150.249 23.5244L148.448 23.1674L150.895 10.8255Z" fill="#7D9B6B"/>
  <path d="M165.736 15.7966L161.958 14.8057L162.351 13.3083L171.7 15.7605L171.308 17.2578L167.53 16.2669L164.73 26.94L162.937 26.4696L165.736 15.7966Z" fill="#7D9B6B"/>
  <path d="M174.119 16.6024L181.982 19.2539L181.487 20.7208L175.364 18.6559L174.093 22.4254L178.664 23.9668L178.175 25.4166L173.604 23.8752L172.327 27.6617L178.451 29.7265L177.962 31.1763L170.099 28.5248L174.119 16.6024Z" fill="#7D9B6B"/>
  <path d="M186.453 20.6789L190.172 22.2829C191.417 22.8199 192.397 23.5171 193.112 24.3743C193.827 25.2316 194.242 26.1945 194.356 27.2631C194.481 28.3364 194.292 29.457 193.788 30.625C192.961 32.5423 191.777 33.7568 190.237 34.2684C188.712 34.7738 186.952 34.5964 184.958 33.7362L181.47 32.232L186.453 20.6789ZM185.547 32.3242C187.09 32.9896 188.411 33.1084 189.51 32.6808C190.609 32.2532 191.468 31.3232 192.086 29.8907C192.656 28.5685 192.727 27.3578 192.3 26.2585C191.883 25.164 190.975 24.315 189.576 23.7114L187.526 22.8274L183.762 31.5543L185.547 32.3242Z" fill="#7D9B6B"/>
  <defs>
    <clipPath id="clip0">
      <rect width="16" height="16" fill="white" transform="translate(110 41.0185)"/>
    </clipPath>
  </defs>
</svg>
